<svg version="1.1" id="Layer_1" xmlns="http://www.w3.org/2000/svg" xmlns:xlink="http://www.w3.org/1999/xlink" x="0px" y="0px"
	 width="100%" viewBox="0 0 192 192" enable-background="new 0 0 192 192" xml:space="preserve">
<path fill="#FEFEFD" opacity="1.000000" stroke="none" 
	d="
M193.000000,53.000000 
	C193.000000,99.969719 193.000000,146.439438 193.000000,192.954575 
	C129.071991,192.954575 65.143951,192.954575 1.107953,192.954575 
	C1.107953,129.113815 1.107953,65.227386 1.107953,1.170478 
	C64.999619,1.170478 128.999786,1.170478 193.000000,1.170478 
	C193.000000,18.189114 193.000000,35.344555 193.000000,53.000000 
M9.436924,145.291260 
	C9.562678,145.854492 9.688434,146.417709 9.956039,147.656708 
	C10.283076,148.441071 10.610114,149.225449 10.985213,150.675797 
	C10.925258,151.114304 10.865301,151.552795 10.090892,152.182907 
	C9.909816,153.830017 9.422501,155.513245 9.611654,157.116669 
	C10.000959,160.416763 10.751843,163.674210 11.474908,167.607239 
	C13.090257,167.963425 15.462315,168.486450 18.060137,169.549759 
	C18.314774,170.034393 18.569408,170.519028 18.078960,171.004425 
	C17.118919,171.431412 16.158878,171.858398 15.198840,172.285385 
	C16.960318,174.172653 18.569679,176.254272 20.578009,177.826202 
	C21.163797,178.284714 22.887323,177.289658 24.556934,177.089249 
	C24.853962,177.274597 25.018942,177.541534 25.030825,178.640625 
	C26.178089,180.783371 27.325356,182.926132 28.717724,185.526657 
	C30.346712,183.798187 31.222561,182.868835 32.556107,182.023300 
	C32.556107,182.023300 32.996742,182.172821 33.083530,182.824677 
	C34.642281,186.208145 36.332191,184.493256 38.840981,183.022446 
	C41.209774,183.393082 43.578571,183.763718 46.456280,184.830383 
	C79.971298,184.830566 113.486313,184.830765 147.792709,184.962830 
	C150.847992,184.277100 153.903290,183.591354 157.492371,183.514252 
	C164.845840,184.681381 168.454208,182.911545 169.225952,177.273758 
	C171.438309,174.730896 173.717590,172.242172 175.836243,169.623520 
	C176.986099,168.202316 177.862534,166.559891 179.179276,164.346313 
	C179.847977,162.567795 180.516678,160.789261 181.831696,159.074646 
	C185.748367,159.426590 184.850555,156.134003 184.887436,154.363403 
	C185.101120,144.104980 185.017120,133.839600 184.942581,123.577255 
	C184.936218,122.702888 184.262161,121.833366 183.999832,120.038086 
	C183.947845,115.028290 183.895874,110.018501 183.994019,104.084785 
	C183.959625,99.070488 183.925232,94.056183 184.521683,88.476059 
	C184.639038,74.061226 184.762817,59.646427 184.841919,45.231384 
	C184.844208,44.810333 184.374741,44.386696 183.764816,43.613659 
	C183.623245,43.523960 183.481659,43.434261 183.413345,42.660809 
	C182.628967,40.400043 181.844589,38.139275 181.019958,35.161144 
	C181.003265,34.443382 180.986572,33.725616 181.670029,32.937748 
	C182.165833,31.687756 183.349884,29.567532 183.046722,29.327749 
	C180.937729,27.659744 178.520142,26.381907 175.936508,24.420586 
	C175.302017,23.926691 174.667542,23.432796 173.917816,22.435427 
	C173.833557,22.285286 173.749313,22.135147 173.566589,21.352528 
	C172.065582,20.189486 170.564590,19.026443 168.776657,17.249758 
	C166.890320,16.057684 165.003967,14.865612 163.063248,12.998407 
	C160.056793,12.056992 157.050354,11.115576 153.918686,9.430113 
	C152.262619,9.320102 150.606537,9.210091 148.023636,9.005072 
	C113.365891,9.038397 78.708145,9.071722 43.564362,8.510443 
	C39.498928,9.239067 35.458576,10.229830 31.360941,10.621853 
	C27.343510,11.006203 25.880651,13.500001 24.355576,17.182587 
	C22.511467,19.760836 20.667358,22.339085 18.180477,24.935272 
	C17.155577,25.640814 16.130676,26.346355 14.477226,26.782618 
	C13.058844,26.328516 11.640461,25.874414 10.035162,25.360472 
	C9.651584,29.780611 9.126466,33.394135 9.134419,37.006485 
	C9.137371,38.347298 10.390282,39.685356 11.031561,41.516022 
	C11.031561,41.516022 11.151106,41.994415 11.004972,42.657688 
	C10.941315,43.105000 10.877657,43.552307 10.145382,44.151375 
	C10.029375,45.756325 9.913369,47.361275 9.940339,49.726269 
	C9.895364,50.495369 9.850389,51.264465 9.301987,52.667690 
	C9.474923,56.788647 9.647860,60.909607 9.997984,65.012589 
	C9.997984,65.012589 10.162604,64.944633 10.017164,65.843353 
	C10.062978,68.561302 10.108791,71.279259 10.007158,74.859306 
	C10.036036,76.892151 10.064914,78.924988 9.468074,81.528870 
	C9.312248,86.660728 8.995834,91.794640 9.061236,96.923683 
	C9.100047,99.967247 9.740746,103.003151 10.013090,106.967270 
	C10.062354,112.311440 10.111618,117.655617 10.017853,123.927223 
	C10.061456,130.961456 10.105060,137.995697 9.982009,144.999680 
	C9.982009,144.999680 9.817023,144.961334 9.436924,145.291260 
z"/>
<path fill="#500BCA" opacity="1.000000" stroke="none" 
	d="
M25.051876,177.890091 
	C25.018942,177.541534 24.853962,177.274597 24.268005,176.677216 
	C22.260733,174.511337 20.542391,172.757507 18.824047,171.003662 
	C18.569408,170.519028 18.314774,170.034393 17.925171,168.938339 
	C16.578007,166.207062 15.365808,164.087189 14.355564,161.780792 
	C14.211837,161.336319 13.866153,161.078384 13.409220,160.744568 
	C13.297969,160.668716 13.150971,160.443054 13.389961,160.092056 
	C14.079531,158.491791 14.530108,157.242508 15.252108,156.208649 
	C17.703764,159.427307 19.883999,162.430573 22.064236,165.433853 
	C23.737741,160.601807 23.737741,160.601807 28.605268,161.764038 
	C28.221733,163.331146 27.838295,164.897873 27.454857,166.464600 
	C27.737450,166.814362 28.020042,167.164124 28.302635,167.513901 
	C32.680714,159.193024 40.074249,161.017014 46.882298,161.012009 
	C82.001762,160.986145 117.121590,160.929428 152.240280,161.096527 
	C156.263031,161.115677 160.279465,162.463333 164.470444,163.226257 
	C164.458145,163.451050 164.514496,162.421005 164.577805,161.263855 
	C167.642715,160.944656 171.009750,159.546524 170.896255,163.417480 
	C173.899338,164.020569 176.380814,164.518906 178.862289,165.017242 
	C177.862534,166.559891 176.986099,168.202316 175.836243,169.623520 
	C173.717590,172.242172 171.438309,174.730896 168.699020,177.631119 
	C166.354034,178.588684 164.516800,179.137268 162.723129,179.803131 
	C160.808975,180.513718 158.935944,181.335114 157.001663,181.786865 
	C156.307129,180.644928 155.655914,179.824265 155.141815,178.948242 
	C155.184738,178.926971 155.090530,178.961075 154.600433,179.044037 
	C151.803040,179.395264 149.401520,179.697632 146.877975,179.794495 
	C146.406952,179.603653 146.057968,179.618317 145.708969,179.632965 
	C146.139313,179.755310 146.569656,179.877655 146.845978,180.244553 
	C146.126556,180.994568 145.561142,181.500031 144.664062,182.004791 
	C143.890137,182.003922 143.447876,182.003723 142.538193,182.002441 
	C137.046341,182.001572 132.021927,182.001755 126.528992,182.002106 
	C106.374504,182.002167 86.688507,182.002060 66.533707,182.001495 
	C60.747162,182.000626 55.425156,181.884247 50.114632,182.079773 
	C48.753613,182.129883 47.428867,183.165009 46.032135,183.836945 
	C45.976818,183.926270 45.947365,184.134354 45.947365,184.134354 
	C43.578571,183.763718 41.209774,183.393082 38.287086,182.683090 
	C36.154377,182.286758 34.575558,182.229782 32.996742,182.172821 
	C32.996742,182.172821 32.556107,182.023300 32.174831,181.664520 
	C29.546329,180.167191 27.299103,179.028641 25.051876,177.890091 
z"/>
<path fill="#E43F53" opacity="1.000000" stroke="none" 
	d="
M154.043900,10.174162 
	C157.050354,11.115576 160.056793,12.056992 163.074677,13.678123 
	C162.390533,17.237938 161.694977,20.118038 160.530792,22.998735 
	C120.165680,22.999521 80.269051,23.035107 40.372902,22.914169 
	C37.913319,22.906715 35.457470,21.665113 33.000015,20.594707 
	C32.991398,17.837757 33.363693,15.257524 30.037212,14.623343 
	C34.757240,12.841179 39.332970,11.395304 44.245735,9.992249 
	C46.054688,10.027834 47.526608,10.020601 49.294655,10.307484 
	C51.402534,10.734714 53.214191,10.982447 55.026039,10.983849 
	C85.024376,11.007063 115.022743,10.999339 145.428635,11.001934 
	C146.922592,10.985747 148.009018,10.966165 149.416046,10.963509 
	C151.172394,10.711678 152.608154,10.442920 154.043900,10.174162 
z"/>
<path fill="#D43A60" opacity="1.000000" stroke="none" 
	d="
M174.033051,22.938900 
	C174.667542,23.432796 175.302017,23.926691 176.100098,25.039747 
	C177.832428,28.108559 179.401154,30.558208 180.969879,33.007858 
	C180.986572,33.725616 181.003265,34.443382 180.842468,35.812881 
	C179.462769,37.751976 178.260574,39.039337 177.047989,40.337814 
	C174.607941,40.230438 171.987976,40.016163 169.367859,40.014706 
	C130.596832,39.993160 91.825394,39.924225 53.055462,40.131855 
	C49.658298,40.150040 46.271088,42.026302 42.638905,42.952713 
	C41.974663,42.598404 41.550770,42.330914 40.814983,41.916634 
	C39.140686,40.586529 37.778275,39.403214 36.218590,38.048553 
	C35.355999,39.078880 34.604645,39.976349 33.853287,40.873817 
	C33.765079,40.417061 33.676876,39.960308 33.588673,39.503555 
	C28.058455,39.334297 22.528236,39.165043 16.998728,38.588615 
	C16.171633,34.397671 18.617994,32.216316 21.370047,30.071568 
	C24.948235,33.860088 28.087730,34.147640 31.337055,30.989956 
	C32.111782,30.992289 32.554485,30.992342 33.150177,31.303209 
	C34.225178,32.739277 35.147198,33.864529 35.586472,34.400623 
	C42.421581,33.548267 48.622631,32.145905 54.832569,32.105331 
	C88.561234,31.884977 122.292122,31.979477 156.022125,32.039349 
	C158.856674,32.044380 161.690277,32.594013 164.359299,32.873356 
	C164.625015,30.444103 164.813675,28.719374 165.338837,27.045532 
	C167.064835,28.377504 168.454330,29.658587 169.671204,30.780510 
	C174.264435,29.567074 175.096008,26.736645 174.033051,22.938900 
z"/>
<path fill="#570EC2" opacity="1.000000" stroke="none" 
	d="
M179.020782,164.681778 
	C176.380814,164.518906 173.899338,164.020569 170.896255,163.417480 
	C171.009750,159.546524 167.642715,160.944656 164.577805,161.263855 
	C164.514496,162.421005 164.458145,163.451050 164.470444,163.226257 
	C160.279465,162.463333 156.263031,161.115677 152.240280,161.096527 
	C117.121590,160.929428 82.001762,160.986145 46.882298,161.012009 
	C40.074249,161.017014 32.680714,159.193024 28.302635,167.513901 
	C28.020042,167.164124 27.737450,166.814362 27.454857,166.464600 
	C27.838295,164.897873 28.221733,163.331146 28.605268,161.764038 
	C23.737741,160.601807 23.737741,160.601807 22.064236,165.433853 
	C19.883999,162.430573 17.703764,159.427307 15.257874,155.877747 
	C14.996187,154.890076 15.000154,154.448700 15.472342,154.004852 
	C70.406410,154.002396 124.872261,154.002396 179.542999,154.002396 
	C180.456741,152.606476 181.637222,150.803085 182.888321,149.414886 
	C182.367767,152.890289 181.776581,155.950516 181.185394,159.010742 
	C180.516678,160.789261 179.847977,162.567795 179.020782,164.681778 
z"/>
<path fill="#CD3665" opacity="1.000000" stroke="none" 
	d="
M42.879250,43.039528 
	C46.271088,42.026302 49.658298,40.150040 53.055462,40.131855 
	C91.825394,39.924225 130.596832,39.993160 169.367859,40.014706 
	C171.987976,40.016163 174.607941,40.230438 177.047989,40.337814 
	C178.260574,39.039337 179.462769,37.751976 180.862579,36.171562 
	C181.844589,38.139275 182.628967,40.400043 183.273010,43.456367 
	C183.084686,45.168571 183.036713,46.085220 182.652222,47.003227 
	C181.544128,47.335995 180.772522,47.667408 179.755692,48.166317 
	C179.340500,48.889313 179.170563,49.444809 178.613495,49.955727 
	C175.027145,49.274204 171.824158,48.068703 168.629318,48.090004 
	C142.418427,48.264744 116.209045,48.667782 89.582733,49.001030 
	C87.778099,49.000557 86.389931,49.000584 84.578621,48.989853 
	C72.300056,46.710037 60.561428,48.237656 48.530022,49.933887 
	C46.522736,47.848644 44.817467,45.895206 43.052460,43.716591 
	C42.992729,43.491417 42.879250,43.039528 42.879250,43.039528 
M46.517220,43.412785 
	C46.517220,43.412785 46.582432,43.522469 46.517220,43.412785 
z"/>
<path fill="#CE3665" opacity="1.000000" stroke="none" 
	d="
M16.998020,38.995789 
	C22.528236,39.165043 28.058455,39.334297 33.588673,39.503555 
	C33.676876,39.960308 33.765079,40.417061 33.853287,40.873817 
	C34.604645,39.976349 35.355999,39.078880 36.218590,38.048553 
	C37.778275,39.403214 39.140686,40.586529 40.764999,42.229366 
	C40.974197,43.108582 40.921490,43.528278 40.591583,44.142208 
	C40.155071,45.223022 39.995754,46.109596 39.465763,46.990601 
	C31.064074,47.988605 23.033060,48.992184 15.001194,49.558975 
	C15.000341,46.698689 15.000341,44.275185 15.000341,41.750038 
	C13.424003,41.850113 12.287554,41.922264 11.151106,41.994415 
	C11.151106,41.994415 11.031561,41.516022 11.351124,41.108219 
	C12.080733,37.777565 12.490780,34.854713 13.180731,32.141327 
	C14.639762,34.565788 15.818892,36.780788 16.998020,38.995789 
z"/>
<path fill="#AD2E7D" opacity="1.000000" stroke="none" 
	d="
M10.093792,80.957832 
	C10.064914,78.924988 10.036036,76.892151 10.388407,74.429321 
	C11.180351,73.999275 11.591048,73.999207 12.224030,74.255981 
	C20.396202,73.761917 28.346090,73.011002 36.978802,72.195587 
	C37.340717,71.788788 38.582336,70.393188 39.892147,69.426620 
	C39.923138,71.589890 39.885941,73.324127 39.601692,75.301651 
	C39.229004,76.699059 39.103371,77.853157 38.638802,79.058891 
	C32.056740,79.639084 25.814053,80.172890 19.570179,80.692467 
	C18.048979,80.819038 16.523888,80.898849 14.590530,80.999985 
	C13.084513,81.016403 11.988547,81.033012 10.693073,81.025040 
	C10.493564,81.000443 10.093792,80.957832 10.093792,80.957832 
z"/>
<path fill="#E63D59" opacity="1.000000" stroke="none" 
	d="
M32.997192,30.992395 
	C32.554485,30.992342 32.111782,30.992289 31.301199,30.645605 
	C29.220846,28.679644 27.508369,27.060312 25.795893,25.440983 
	C23.215290,28.680384 21.161552,24.904295 18.823250,24.917336 
	C20.667358,22.339085 22.511467,19.760836 25.014420,17.067417 
	C27.079811,16.288042 28.486361,15.623837 29.892910,14.959632 
	C33.363693,15.257524 32.991398,17.837757 32.643082,20.636461 
	C31.814520,22.619673 30.849499,24.207520 30.997293,25.683975 
	C31.179276,27.501961 32.288639,29.227118 32.997192,30.992395 
z"/>
<path fill="#E5576D" opacity="1.000000" stroke="none" 
	d="
M149.095459,10.946581 
	C148.009018,10.966165 146.922592,10.985747 145.132401,10.703907 
	C142.950317,10.268495 141.472092,10.018524 139.993683,10.017624 
	C109.661972,9.999148 79.330246,10.009085 48.998524,10.013369 
	C47.526608,10.020601 46.054688,10.027834 44.292210,9.783029 
	C44.001648,9.530991 44.050400,9.105047 44.050400,9.105047 
	C78.708145,9.071722 113.365891,9.038397 148.494659,9.361825 
	C149.008942,10.127913 149.052200,10.537246 149.095459,10.946581 
z"/>
<path fill="#E63B59" opacity="1.000000" stroke="none" 
	d="
M173.975433,22.687164 
	C175.096008,26.736645 174.264435,29.567074 169.671204,30.780510 
	C168.454330,29.658587 167.064835,28.377504 165.193542,26.748585 
	C163.474304,25.266546 162.236847,24.132339 160.999390,22.998137 
	C161.694977,20.118038 162.390533,17.237938 163.101868,14.015689 
	C165.003967,14.865612 166.890320,16.057684 168.847382,17.920067 
	C167.654449,19.436054 166.390793,20.281733 164.495178,21.550339 
	C166.015076,22.937092 167.279617,24.090870 168.544174,25.244648 
	C168.623718,24.646269 168.703262,24.047890 168.782806,23.449512 
	C170.410233,22.961344 172.037659,22.473175 173.665085,21.985006 
	C173.749313,22.135147 173.833557,22.285286 173.975433,22.687164 
z"/>
<path fill="#6129C8" opacity="1.000000" stroke="none" 
	d="
M147.001328,184.830948 
	C113.486313,184.830765 79.971298,184.830566 46.201820,184.482361 
	C45.947365,184.134354 45.976818,183.926270 46.389175,183.924438 
	C47.537514,183.945145 48.273487,183.967667 49.477516,183.993927 
	C81.627396,183.989258 113.309227,183.980820 145.277695,183.995270 
	C146.043335,184.289093 146.522324,184.560013 147.001328,184.830948 
z"/>
<path fill="#C33969" opacity="1.000000" stroke="none" 
	d="
M11.078039,42.326050 
	C12.287554,41.922264 13.424003,41.850113 15.000341,41.750038 
	C15.000341,44.275185 15.000341,46.698689 15.000231,49.996712 
	C14.999460,52.912655 14.998800,54.954071 14.614155,57.080124 
	C13.819502,59.774166 13.408835,62.383572 12.748302,64.995316 
	C12.498435,64.997658 11.998703,65.002441 11.692336,65.000359 
	C10.978181,64.980392 10.570393,64.962517 10.162604,64.944633 
	C10.162604,64.944633 9.997984,65.012589 9.983582,64.561874 
	C9.914592,60.085289 9.860002,56.059429 9.805412,52.033566 
	C9.850389,51.264465 9.895364,50.495369 9.944595,48.978851 
	C10.237234,46.820831 10.525617,45.410225 10.813999,43.999619 
	C10.877657,43.552307 10.941315,43.105000 11.078039,42.326050 
z"/>
<path fill="#FFF2FF" opacity="1.000000" stroke="none" 
	d="
M181.508545,159.042694 
	C181.776581,155.950516 182.367767,152.890289 182.964203,149.004135 
	C182.926651,146.789124 182.883820,145.400024 182.913147,143.564957 
	C182.937622,140.415359 182.889954,137.711761 182.912918,134.548096 
	C183.016403,129.743958 183.049240,125.399864 183.286133,121.032341 
	C183.490204,121.008911 183.898285,120.961594 183.898285,120.961594 
	C184.262161,121.833366 184.936218,122.702888 184.942581,123.577255 
	C185.017120,133.839600 185.101120,144.104980 184.887436,154.363403 
	C184.850555,156.134003 185.748367,159.426590 181.508545,159.042694 
z"/>
<path fill="#DC3C5A" opacity="1.000000" stroke="none" 
	d="
M18.501863,24.926304 
	C21.161552,24.904295 23.215290,28.680384 25.795893,25.440983 
	C27.508369,27.060312 29.220846,28.679644 30.969177,30.643326 
	C28.087730,34.147640 24.948235,33.860088 21.233559,29.783760 
	C18.873671,28.951754 17.018833,28.474934 15.104756,27.764309 
	C15.045515,27.530504 15.105774,27.051895 15.105774,27.051895 
	C16.130676,26.346355 17.155577,25.640814 18.501863,24.926304 
z"/>
<path fill="#FFF2FF" opacity="1.000000" stroke="none" 
	d="
M184.125244,43.964264 
	C184.374741,44.386696 184.844208,44.810333 184.841919,45.231384 
	C184.762817,59.646427 184.639038,74.061226 183.990143,88.725861 
	C183.458603,88.975670 183.034592,88.869095 183.004303,88.642601 
	C182.974030,88.416107 182.829819,87.981514 182.897125,87.548737 
	C182.919464,85.078354 182.874496,83.040749 182.901581,80.547363 
	C182.983170,78.259193 182.992447,76.426804 183.002335,74.594421 
	C183.019363,71.441444 183.036774,68.288467 183.402191,64.871666 
	C183.875320,57.726650 184.000275,50.845455 184.125244,43.964264 
z"/>
<path fill="#FDF2FC" opacity="1.000000" stroke="none" 
	d="
M14.153609,161.967331 
	C15.365808,164.087189 16.578007,166.207062 17.812290,168.668198 
	C15.462315,168.486450 13.090257,167.963425 11.474908,167.607239 
	C10.751843,163.674210 10.000959,160.416763 9.611654,157.116669 
	C9.422501,155.513245 9.909816,153.830017 10.513899,152.485046 
	C11.674929,155.339142 12.412951,157.891098 13.150972,160.443054 
	C13.150971,160.443054 13.297969,160.668716 13.526133,160.928558 
	C13.913371,161.434723 14.046475,161.694366 14.153609,161.967331 
z"/>
<path fill="#FAF8F5" opacity="1.000000" stroke="none" 
	d="
M14.791500,26.917255 
	C15.105774,27.051895 15.045515,27.530504 14.963289,28.063032 
	C14.220986,29.707663 13.560908,30.819763 12.900829,31.931864 
	C12.490780,34.854713 12.080733,37.777565 11.371927,40.862545 
	C10.390282,39.685356 9.137371,38.347298 9.134419,37.006485 
	C9.126466,33.394135 9.651584,29.780611 10.035162,25.360472 
	C11.640461,25.874414 13.058844,26.328516 14.791500,26.917255 
z"/>
<path fill="#FEF2F0" opacity="1.000000" stroke="none" 
	d="
M43.807381,8.807745 
	C44.050400,9.105047 44.001648,9.530991 43.955170,9.740210 
	C39.332970,11.395304 34.757240,12.841179 30.037212,14.623343 
	C28.486361,15.623837 27.079811,16.288042 25.330692,16.890112 
	C25.880651,13.500001 27.343510,11.006203 31.360941,10.621853 
	C35.458576,10.229830 39.498928,9.239067 43.807381,8.807745 
z"/>
<path fill="#FFF2FE" opacity="1.000000" stroke="none" 
	d="
M9.780933,81.243347 
	C10.093792,80.957832 10.493564,81.000443 10.740122,81.467140 
	C11.048560,84.623512 11.110439,87.313194 11.103971,90.455406 
	C11.073151,94.273323 11.110677,97.638695 11.081324,101.408554 
	C10.985367,103.181206 10.956288,104.549385 10.724049,105.954910 
	C10.520888,105.992271 10.110820,106.042496 10.110820,106.042496 
	C9.740746,103.003151 9.100047,99.967247 9.061236,96.923683 
	C8.995834,91.794640 9.312248,86.660728 9.780933,81.243347 
z"/>
<path fill="#4709C9" opacity="1.000000" stroke="none" 
	d="
M147.397018,184.896881 
	C146.522324,184.560013 146.043335,184.289093 145.280624,183.667786 
	C144.996521,182.880112 144.996124,182.442795 144.995728,182.005493 
	C145.561142,181.500031 146.126556,180.994568 146.845978,180.244553 
	C149.401520,179.697632 151.803040,179.395264 154.602280,179.046448 
	C155.000000,179.000000 155.004684,179.003586 155.004684,179.003586 
	C155.655914,179.824265 156.307129,180.644928 156.980743,181.986328 
	C157.003113,182.507065 156.958588,182.905624 156.958588,182.905609 
	C153.903290,183.591354 150.847992,184.277100 147.397018,184.896881 
z"/>
<path fill="#FDF4FE" opacity="1.000000" stroke="none" 
	d="
M157.225479,183.209930 
	C156.958588,182.905624 157.003113,182.507065 157.024048,182.307602 
	C158.935944,181.335114 160.808975,180.513718 162.723129,179.803131 
	C164.516800,179.137268 166.354034,178.588684 168.562225,177.940903 
	C168.454208,182.911545 164.845840,184.681381 157.225479,183.209930 
z"/>
<path fill="#FBFCEF" opacity="1.000000" stroke="none" 
	d="
M18.451504,171.004044 
	C20.542391,172.757507 22.260733,174.511337 24.034214,176.613037 
	C22.887323,177.289658 21.163797,178.284714 20.578009,177.826202 
	C18.569679,176.254272 16.960318,174.172653 15.198838,172.285385 
	C16.158878,171.858398 17.118919,171.431412 18.451504,171.004044 
z"/>
<path fill="#FCF0F1" opacity="1.000000" stroke="none" 
	d="
M181.319946,32.972801 
	C179.401154,30.558208 177.832428,28.108559 176.232605,25.318939 
	C178.520142,26.381907 180.937729,27.659744 183.046722,29.327749 
	C183.349884,29.567532 182.165833,31.687756 181.319946,32.972801 
z"/>
<path fill="#D54153" opacity="1.000000" stroke="none" 
	d="
M173.615845,21.668766 
	C172.037659,22.473175 170.410233,22.961344 168.782806,23.449512 
	C168.703262,24.047890 168.623718,24.646269 168.544174,25.244648 
	C167.279617,24.090870 166.015076,22.937092 164.495178,21.550339 
	C166.390793,20.281733 167.654449,19.436054 168.990845,18.226889 
	C170.564590,19.026443 172.065582,20.189486 173.615845,21.668766 
z"/>
<path fill="#FAEFFD" opacity="1.000000" stroke="none" 
	d="
M25.041349,178.265350 
	C27.299103,179.028641 29.546329,180.167191 31.945984,181.622620 
	C31.222561,182.868835 30.346712,183.798187 28.717724,185.526657 
	C27.325356,182.926132 26.178089,180.783371 25.041349,178.265350 
z"/>
<path fill="#4C11AF" opacity="1.000000" stroke="none" 
	d="
M13.389962,160.092056 
	C12.412951,157.891098 11.674929,155.339142 10.871126,152.389252 
	C10.865301,151.552795 10.925258,151.114304 11.014742,150.361786 
	C11.044270,150.047791 11.129302,149.972717 11.337883,149.985901 
	C11.546463,149.999100 11.966871,150.013885 11.974564,150.339325 
	C12.141394,151.467377 12.300530,152.269974 12.459665,153.072571 
	C12.647698,152.721527 12.835733,152.370499 13.287773,152.138397 
	C14.035893,152.840652 14.520010,153.423981 15.004123,154.007324 
	C15.000154,154.448700 14.996187,154.890076 14.986454,155.662354 
	C14.530108,157.242508 14.079531,158.491791 13.389962,160.092056 
z"/>
<path fill="#683C90" opacity="1.000000" stroke="none" 
	d="
M10.148663,145.029922 
	C10.105060,137.995697 10.061456,130.961456 10.302958,123.464813 
	C10.588063,123.002396 11.015229,123.006989 11.022970,123.469421 
	C11.058426,127.966240 11.086140,132.000626 11.087799,136.481384 
	C11.032708,139.606598 11.003672,142.285446 10.767908,144.977753 
	C10.561181,144.991211 10.148663,145.029922 10.148663,145.029922 
z"/>
<path fill="#B25071" opacity="1.000000" stroke="none" 
	d="
M183.945023,43.788963 
	C184.000275,50.845455 183.875320,57.726650 183.383209,64.458817 
	C182.998032,63.208183 182.979980,62.106571 182.972809,60.671471 
	C182.979980,59.893257 182.976288,59.448536 182.980377,58.549500 
	C182.986237,55.063225 182.984299,52.031265 182.988968,48.666420 
	C182.993286,47.889648 182.991013,47.445759 182.988724,47.001869 
	C183.036713,46.085220 183.084686,45.168571 183.236359,43.798241 
	C183.481659,43.434261 183.623245,43.523960 183.945023,43.788963 
z"/>
<path fill="#B8326D" opacity="1.000000" stroke="none" 
	d="
M10.089884,65.393997 
	C10.570393,64.962517 10.978181,64.980392 11.693306,65.450043 
	C12.001011,68.600922 12.001377,71.300026 12.001744,73.999130 
	C11.591048,73.999207 11.180351,73.999275 10.462130,73.998276 
	C10.108791,71.279259 10.062978,68.561302 10.089884,65.393997 
z"/>
<path fill="#743D81" opacity="1.000000" stroke="none" 
	d="
M11.015229,123.006989 
	C11.015229,123.006989 10.588063,123.002396 10.374473,123.001091 
	C10.111618,117.655617 10.062354,112.311440 10.061954,106.504883 
	C10.110820,106.042496 10.520888,105.992271 10.746723,106.301956 
	C10.988698,107.075829 11.004837,107.540009 11.011757,108.421600 
	C11.013444,110.230965 11.024349,111.622917 11.022421,113.457520 
	C11.036236,116.267593 11.062883,118.635017 11.073677,121.336357 
	C11.043625,122.115837 11.029427,122.561417 11.015229,123.006989 
z"/>
<path fill="#89467C" opacity="1.000000" stroke="none" 
	d="
M183.034592,88.869095 
	C183.034592,88.869095 183.458603,88.975670 183.674713,89.008774 
	C183.925232,94.056183 183.959625,99.070488 183.705353,104.546288 
	C183.416687,105.007790 182.989487,105.010498 182.981125,104.674866 
	C182.944580,103.892891 182.916397,103.446533 182.914474,102.542595 
	C182.919769,98.708511 182.898804,95.332008 182.916977,91.571693 
	C182.982269,90.414948 183.008438,89.642021 183.034592,88.869095 
z"/>
<path fill="#773E81" opacity="1.000000" stroke="none" 
	d="
M182.989487,105.010498 
	C182.989487,105.010498 183.416687,105.007790 183.630295,105.008247 
	C183.895874,110.018501 183.947845,115.028290 183.949066,120.499840 
	C183.898285,120.961594 183.490204,121.008911 183.227997,121.008675 
	C182.965805,121.008438 182.862076,120.937714 182.900314,120.500626 
	C182.916122,117.714279 182.893707,115.365028 182.900925,112.571823 
	C182.950195,109.755417 182.969833,107.382957 182.989487,105.010498 
z"/>
<path fill="#FAEFFD" opacity="1.000000" stroke="none" 
	d="
M33.040138,182.498749 
	C34.575558,182.229782 36.154377,182.286758 37.875420,182.647675 
	C36.332191,184.493256 34.642281,186.208145 33.040138,182.498749 
z"/>
<path fill="#FEF2F0" opacity="1.000000" stroke="none" 
	d="
M149.416046,10.963508 
	C149.052200,10.537246 149.008942,10.127913 148.958084,9.409328 
	C150.606537,9.210091 152.262619,9.320102 153.981293,9.802137 
	C152.608154,10.442920 151.172394,10.711678 149.416046,10.963508 
z"/>
<path fill="#FFF2FE" opacity="1.000000" stroke="none" 
	d="
M9.553699,52.350628 
	C9.860002,56.059429 9.914592,60.085289 9.894989,64.570862 
	C9.647860,60.909607 9.474923,56.788647 9.553699,52.350628 
z"/>
<path fill="#FFF2FE" opacity="1.000000" stroke="none" 
	d="
M10.479691,44.075497 
	C10.525617,45.410225 10.237234,46.820831 9.873107,48.598831 
	C9.913369,47.361275 10.029375,45.756325 10.479691,44.075497 
z"/>
<path fill="#5F32AC" opacity="1.000000" stroke="none" 
	d="
M10.065336,145.014801 
	C10.148663,145.029922 10.561181,144.991211 10.781053,145.233841 
	C11.007651,145.647003 11.014379,145.817535 11.013113,146.387253 
	C11.046514,147.848526 11.087908,148.910629 11.129302,149.972717 
	C11.129302,149.972717 11.044270,150.047791 10.990711,150.028809 
	C10.610114,149.225449 10.283076,148.441071 9.957195,146.984802 
	C9.911242,145.862366 9.864132,145.411850 9.817023,144.961334 
	C9.817023,144.961334 9.982009,144.999680 10.065336,145.014801 
z"/>
<path fill="#FFF2FE" opacity="1.000000" stroke="none" 
	d="
M9.626974,145.126297 
	C9.864132,145.411850 9.911242,145.862366 9.886269,146.646912 
	C9.688434,146.417709 9.562678,145.854492 9.626974,145.126297 
z"/>
<path fill="#4D06D5" opacity="1.000000" stroke="none" 
	d="
M144.664062,182.004791 
	C144.996124,182.442795 144.996521,182.880112 144.993988,183.644897 
	C113.309227,183.980820 81.627396,183.989258 49.771561,183.700043 
	C51.551704,183.268875 53.507706,183.157867 55.459610,182.997040 
	C59.308445,182.679932 63.155014,182.335236 67.002518,182.001953 
	C86.688507,182.002060 106.374504,182.002167 126.823006,182.297394 
	C132.725555,182.396194 137.865585,182.199860 143.005615,182.003525 
	C143.447876,182.003723 143.890137,182.003922 144.664062,182.004791 
z"/>
<path fill="#4709C9" opacity="1.000000" stroke="none" 
	d="
M66.533707,182.001495 
	C63.155014,182.335236 59.308445,182.679932 55.459610,182.997040 
	C53.507706,183.157867 51.551704,183.268875 49.303509,183.696289 
	C48.273487,183.967667 47.537514,183.945145 46.444496,183.835114 
	C47.428867,183.165009 48.753613,182.129883 50.114632,182.079773 
	C55.425156,181.884247 60.747162,182.000626 66.533707,182.001495 
z"/>
<path fill="#4709C9" opacity="1.000000" stroke="none" 
	d="
M142.538193,182.002441 
	C137.865585,182.199860 132.725555,182.396194 127.291504,182.297241 
	C132.021927,182.001755 137.046341,182.001572 142.538193,182.002441 
z"/>
<path fill="#4C11AF" opacity="1.000000" stroke="none" 
	d="
M14.355566,161.780792 
	C14.046475,161.694366 13.913371,161.434723 13.637383,161.004410 
	C13.866153,161.078384 14.211837,161.336319 14.355566,161.780792 
z"/>
<path fill="#4709C9" opacity="1.000000" stroke="none" 
	d="
M146.877975,179.794495 
	C146.569656,179.877655 146.139313,179.755310 145.708969,179.632965 
	C146.057968,179.618317 146.406952,179.603653 146.877975,179.794495 
z"/>
<path fill="#4709C9" opacity="1.000000" stroke="none" 
	d="
M154.998169,178.997589 
	C155.090530,178.961075 155.184738,178.926971 155.141815,178.948242 
	C155.004684,179.003586 155.000000,179.000000 154.998169,178.997589 
z"/>
<path fill="#DC3C5A" opacity="1.000000" stroke="none" 
	d="
M160.530792,22.998734 
	C162.236847,24.132339 163.474304,25.266546 164.857056,26.697699 
	C164.813675,28.719374 164.625015,30.444103 164.359299,32.873356 
	C161.690277,32.594013 158.856674,32.044380 156.022125,32.039349 
	C122.292122,31.979477 88.561234,31.884977 54.832569,32.105331 
	C48.622631,32.145905 42.421581,33.548267 35.586472,34.400623 
	C35.147198,33.864529 34.225178,32.739277 33.150177,31.303209 
	C32.288639,29.227118 31.179276,27.501961 30.997293,25.683975 
	C30.849499,24.207520 31.814520,22.619673 32.642952,21.039474 
	C35.457470,21.665113 37.913319,22.906715 40.372902,22.914169 
	C80.269051,23.035107 120.165680,22.999521 160.530792,22.998734 
z"/>
<path fill="#F73C5A" opacity="1.000000" stroke="none" 
	d="
M49.294655,10.307484 
	C79.330246,10.009085 109.661972,9.999148 139.993683,10.017624 
	C141.472092,10.018524 142.950317,10.268495 144.724869,10.700510 
	C115.022743,10.999339 85.024376,11.007063 55.026039,10.983849 
	C53.214191,10.982447 51.402534,10.734714 49.294655,10.307484 
z"/>
<path fill="#DE3B63" opacity="1.000000" stroke="none" 
	d="
M13.180732,32.141327 
	C13.560908,30.819763 14.220986,29.707663 15.022532,28.296837 
	C17.018833,28.474934 18.873671,28.951754 20.864994,29.716379 
	C18.617994,32.216316 16.171633,34.397671 16.998728,38.588615 
	C15.818892,36.780788 14.639762,34.565788 13.180732,32.141327 
z"/>
<path fill="#46050F" opacity="1.000000" stroke="none" 
	d="
M40.868778,43.947971 
	C40.921490,43.528278 40.974197,43.108582 41.076889,42.376160 
	C41.550770,42.330914 41.974663,42.598404 42.638905,42.952713 
	C42.879250,43.039528 42.992729,43.491417 42.678719,43.733292 
	C41.866066,43.966099 41.367420,43.957035 40.868778,43.947971 
z"/>
<path fill="#5F10BB" opacity="1.000000" stroke="none" 
	d="
M15.472345,154.004852 
	C14.520010,153.423981 14.035893,152.840652 13.278108,151.762604 
	C12.996556,150.517868 12.988674,149.767853 12.986877,148.682159 
	C12.994946,147.898849 12.996931,147.451218 13.274422,146.877930 
	C14.366117,146.168594 15.182305,145.584915 16.044628,145.390244 
	C16.798880,149.499939 19.656998,149.008652 22.320696,149.008057 
	C73.879646,148.996552 125.438606,148.998428 177.040436,149.278625 
	C177.309937,149.690262 177.536560,149.820847 177.763153,149.951431 
	C177.828445,149.829590 177.966293,149.695877 177.948547,149.587662 
	C177.317993,145.739105 179.581192,144.439713 182.841003,144.010941 
	C182.883820,145.400024 182.926651,146.789124 182.893585,148.588959 
	C181.637222,150.803085 180.456741,152.606476 179.542999,154.002396 
	C124.872261,154.002396 70.406410,154.002396 15.472345,154.004852 
z"/>
<path fill="#C5346B" opacity="1.000000" stroke="none" 
	d="
M89.999207,49.001526 
	C116.209045,48.667782 142.418427,48.264744 168.629318,48.090004 
	C171.824158,48.068703 175.027145,49.274204 178.613617,50.393089 
	C179.000778,52.916073 179.000687,54.957119 178.571625,56.997551 
	C172.702347,56.664673 167.263397,56.073711 161.821564,56.045692 
	C140.214859,55.934437 118.607262,55.999043 96.994690,55.663116 
	C96.771370,54.736446 96.553360,54.145149 96.335358,53.553852 
	C91.498833,55.828468 91.280800,51.674835 89.999207,49.001526 
z"/>
<path fill="#C5346C" opacity="1.000000" stroke="none" 
	d="
M48.832039,50.065689 
	C60.561428,48.237656 72.300056,46.710037 84.740181,49.299400 
	C86.501663,50.422066 87.678444,51.224426 89.026688,52.143688 
	C88.316025,53.496239 87.658920,54.746845 86.533096,55.998352 
	C78.713776,55.999249 71.363182,55.999249 63.183231,55.999249 
	C63.322941,56.219711 62.666904,55.184471 62.010868,54.149231 
	C61.515820,54.124306 61.020767,54.099380 60.525715,54.074455 
	C60.146851,55.657604 59.577953,57.225204 59.446785,58.828613 
	C59.333523,60.213100 59.718086,61.638321 59.618225,62.932762 
	C58.902596,62.471031 58.451309,62.122063 57.954487,61.487373 
	C57.326214,60.799835 56.743481,60.398026 56.009003,59.721176 
	C54.934010,58.614120 54.010757,57.782108 52.934753,56.634640 
	C51.465343,54.234688 50.148689,52.150188 48.832039,50.065689 
z"/>
<path fill="#0C0304" opacity="1.000000" stroke="none" 
	d="
M48.530022,49.933887 
	C50.148689,52.150188 51.465343,54.234688 52.640491,56.837254 
	C47.122700,62.072025 50.316925,54.034283 46.738163,54.554726 
	C46.738453,54.554585 45.689026,55.053150 44.697613,55.524151 
	C43.901508,54.145035 43.250214,53.016777 42.004120,50.858139 
	C42.004120,53.402561 42.004120,54.699905 41.703484,55.997116 
	C41.002159,55.996223 40.601471,55.995472 40.121494,55.550907 
	C39.973614,52.403454 39.905025,49.699814 39.836437,46.996174 
	C39.995754,46.109596 40.155071,45.223022 40.591583,44.142208 
	C41.367420,43.957035 41.866066,43.966099 42.738449,43.958466 
	C44.817467,45.895206 46.522736,47.848644 48.530022,49.933887 
z"/>
<path fill="#CB316B" opacity="1.000000" stroke="none" 
	d="
M87.001823,55.997452 
	C87.658920,54.746845 88.316025,53.496239 89.026688,52.143688 
	C87.678444,51.224426 86.501663,50.422066 85.163322,49.310158 
	C86.389931,49.000584 87.778099,49.000557 89.582733,49.001030 
	C91.280800,51.674835 91.498833,55.828468 96.335358,53.553852 
	C96.553360,54.145149 96.771370,54.736446 96.684273,55.825695 
	C95.570053,58.248848 94.760941,60.174049 93.662766,61.993473 
	C92.856583,61.262432 92.339462,60.637169 91.851913,59.763901 
	C91.725052,59.186718 91.466667,58.994667 90.973793,58.686211 
	C90.248817,58.001751 89.656387,57.570812 88.804665,57.090927 
	C88.369476,57.045414 88.193588,57.048840 87.908783,56.824123 
	C87.533852,56.396469 87.267838,56.196960 87.001823,55.997452 
z"/>
<path fill="#BF3668" opacity="1.000000" stroke="none" 
	d="
M179.000610,56.998169 
	C179.000687,54.957119 179.000778,52.916073 179.000732,50.437664 
	C179.170563,49.444809 179.340500,48.889313 179.959900,48.427986 
	C181.267014,48.681202 182.124680,48.840252 182.982361,48.999306 
	C182.984299,52.031265 182.986237,55.063225 182.607605,58.547749 
	C181.151566,58.332932 180.076080,57.665550 179.000610,56.998169 
z"/>
<path fill="#C5346B" opacity="1.000000" stroke="none" 
	d="
M182.988968,48.666420 
	C182.124680,48.840252 181.267014,48.681202 180.205139,48.260483 
	C180.772522,47.667408 181.544128,47.335995 182.652222,47.003227 
	C182.991013,47.445759 182.993286,47.889648 182.988968,48.666420 
z"/>
<path fill="#D43A60" opacity="1.000000" stroke="none" 
	d="
M46.549828,43.467628 
	C46.582432,43.522469 46.517220,43.412785 46.549828,43.467628 
z"/>
<path fill="#C5346B" opacity="1.000000" stroke="none" 
	d="
M39.465763,46.990601 
	C39.905025,49.699814 39.973614,52.403454 40.045181,55.882614 
	C39.968849,57.104332 39.889542,57.550526 39.477104,57.927773 
	C38.507629,57.358711 37.864761,56.416637 37.235928,56.425911 
	C29.822672,56.535244 22.411516,56.786976 14.999890,57.000580 
	C14.999971,56.999943 14.998140,56.995491 14.998140,56.995491 
	C14.998800,54.954071 14.999460,52.912655 15.001083,50.433495 
	C23.033060,48.992184 31.064074,47.988605 39.465763,46.990601 
z"/>
<path fill="#B72F78" opacity="1.000000" stroke="none" 
	d="
M12.224030,74.255981 
	C12.001377,71.300026 12.001011,68.600922 11.999674,65.452133 
	C11.998703,65.002441 12.498435,64.997658 13.081337,64.997681 
	C14.108242,64.997345 14.552245,64.996994 15.465000,64.998123 
	C23.892744,64.999001 31.851740,64.998405 39.880627,65.393936 
	C39.908329,66.859230 39.866142,67.928406 39.823956,68.997589 
	C38.582336,70.393188 37.340717,71.788788 36.978802,72.195587 
	C28.346090,73.011002 20.396202,73.761917 12.224030,74.255981 
z"/>
<path fill="#A52B82" opacity="1.000000" stroke="none" 
	d="
M15.000585,81.000168 
	C16.523888,80.898849 18.048979,80.819038 19.570179,80.692467 
	C25.814053,80.172890 32.056740,79.639084 38.645027,79.512169 
	C38.989918,82.942627 38.989635,85.971436 38.575287,88.946060 
	C30.442478,88.593864 22.723738,88.295868 15.003326,87.560608 
	C15.001299,85.082291 15.000941,83.041229 15.000585,81.000168 
z"/>
<path fill="#0D000C" opacity="1.000000" stroke="none" 
	d="
M39.892147,69.426620 
	C39.866142,67.928406 39.908329,66.859230 39.946461,64.959900 
	C39.898346,62.085411 39.854290,60.041065 39.810234,57.996723 
	C39.889542,57.550526 39.968849,57.104332 40.124474,56.326427 
	C40.601471,55.995472 41.002159,55.996223 41.702759,56.466080 
	C42.001484,63.341366 42.085320,69.749466 41.941208,76.152435 
	C41.903721,77.818016 41.154652,79.467575 40.456398,80.846863 
	C40.069832,78.732269 39.959286,76.895317 39.848743,75.058357 
	C39.885941,73.324127 39.923138,71.589890 39.892147,69.426620 
z"/>
<path fill="#B93B8D" opacity="1.000000" stroke="none" 
	d="
M39.601692,75.301651 
	C39.959286,76.895317 40.069832,78.732269 40.486610,81.303795 
	C40.687374,87.021530 40.581905,92.004700 40.234489,96.993729 
	C39.669151,96.999184 39.345760,96.997971 39.018688,96.621475 
	C39.008419,95.497993 39.001835,94.748993 38.999619,93.583374 
	C38.999115,91.777916 38.994236,90.389076 38.989357,89.000244 
	C38.989635,85.971436 38.989918,82.942627 38.983971,79.460541 
	C39.103371,77.853157 39.229004,76.699059 39.601692,75.301651 
z"/>
<path fill="#AB248C" opacity="1.000000" stroke="none" 
	d="
M14.590530,80.999985 
	C15.000941,83.041229 15.001299,85.082291 15.001040,87.893410 
	C14.997812,89.107071 14.995201,89.550674 14.610020,89.996033 
	C13.209072,89.999474 12.190695,90.001167 11.172318,90.002869 
	C11.110439,87.313194 11.048560,84.623512 10.939632,81.491730 
	C11.988547,81.033012 13.084513,81.016403 14.590530,80.999985 
z"/>
<path fill="#B8326D" opacity="1.000000" stroke="none" 
	d="
M14.996249,64.996643 
	C14.552245,64.996994 14.108242,64.997345 13.331203,64.995338 
	C13.408835,62.383572 13.819502,59.774166 14.614155,57.080124 
	C14.998140,56.995491 14.999971,56.999943 14.999567,57.444527 
	C14.998191,60.258289 14.997220,62.627464 14.996249,64.996643 
z"/>
<path fill="#7916B1" opacity="1.000000" stroke="none" 
	d="
M183.023926,121.032104 
	C183.049240,125.399864 183.016403,129.743958 182.580688,134.584320 
	C181.116867,135.390106 180.055923,135.699600 178.725739,135.773682 
	C178.305145,134.359055 178.153793,133.179825 178.011505,131.585541 
	C178.348694,127.781120 178.676819,124.391777 179.392151,121.002037 
	C180.806931,120.980324 181.834503,120.959015 182.862076,120.937714 
	C182.862076,120.937714 182.965805,121.008438 183.023926,121.032104 
z"/>
<path fill="#6B14B8" opacity="1.000000" stroke="none" 
	d="
M178.994965,136.009094 
	C180.055923,135.699600 181.116867,135.390106 182.510040,135.044373 
	C182.889954,137.711761 182.937622,140.415359 182.913147,143.564957 
	C179.581192,144.439713 177.317993,145.739105 177.948547,149.587662 
	C177.966293,149.695877 177.828445,149.829590 177.763153,149.951431 
	C177.536560,149.820847 177.309937,149.690262 177.041489,148.887238 
	C176.666016,146.475723 176.332382,144.736633 176.137802,142.682190 
	C177.182892,140.247589 178.088928,138.128342 178.994965,136.009094 
z"/>
<path fill="#B62F78" opacity="1.000000" stroke="none" 
	d="
M182.961945,61.004955 
	C182.979980,62.106571 182.998032,63.208183 183.035049,64.722641 
	C183.036774,68.288467 183.019363,71.441444 183.002335,74.594421 
	C182.992447,76.426804 182.983170,78.259193 182.694962,80.547379 
	C182.416290,81.003174 182.003052,81.005798 181.753510,81.002007 
	C181.503967,80.998215 181.004883,80.991333 181.004028,80.583710 
	C180.618469,73.801155 179.194489,72.684868 173.099976,73.771019 
	C171.648010,74.029778 170.132721,73.989487 168.646469,73.990875 
	C153.396988,74.005142 138.147247,73.953064 122.898125,74.028465 
	C118.408325,74.050667 114.119438,73.918732 111.603371,68.690750 
	C109.822395,71.551476 108.393242,73.847092 106.729843,76.093292 
	C106.495598,76.043877 106.029198,75.935593 105.882179,75.629929 
	C103.809654,72.927216 101.884140,70.530167 100.027565,67.756485 
	C102.149338,66.586823 104.582054,64.668259 106.184669,65.209160 
	C111.245583,66.917290 115.993149,64.911537 120.865898,64.950569 
	C137.141403,65.080978 153.419388,65.085205 169.694565,64.935516 
	C173.408966,64.901360 178.075577,66.870605 180.122726,61.351612 
	C180.274887,60.941448 181.979202,61.107029 182.961945,61.004955 
z"/>
<path fill="#AF258C" opacity="1.000000" stroke="none" 
	d="
M181.004883,80.991333 
	C181.004883,80.991333 181.503967,80.998215 181.753235,81.413857 
	C182.278275,83.880173 182.554047,85.930840 182.829803,87.981514 
	C182.829819,87.981514 182.974030,88.416107 183.004303,88.642601 
	C183.008438,89.642021 182.982269,90.414948 182.684418,91.477356 
	C181.277786,91.507973 180.142868,91.249100 179.006348,90.554047 
	C179.001160,88.080399 178.997528,86.042946 179.000732,83.650894 
	C179.673325,82.527977 180.339111,81.759659 181.004883,80.991333 
z"/>
<path fill="#9B3081" opacity="1.000000" stroke="none" 
	d="
M182.897110,87.548737 
	C182.554047,85.930840 182.278275,83.880173 182.002777,81.417648 
	C182.003052,81.005798 182.416290,81.003174 182.622925,81.003159 
	C182.874496,83.040749 182.919464,85.078354 182.897110,87.548737 
z"/>
<path fill="#9F2093" opacity="1.000000" stroke="none" 
	d="
M11.103971,90.455399 
	C12.190695,90.001167 13.209072,89.999474 14.614613,90.347092 
	C15.332663,91.797905 15.663549,92.899391 15.835340,94.366333 
	C15.450951,97.153809 15.225655,99.575836 14.999798,102.397682 
	C14.998161,103.863167 14.997087,104.928841 14.747176,105.996422 
	C14.498341,105.998337 14.000658,106.000000 13.860577,105.675629 
	C12.863064,103.902199 12.005633,102.453133 11.148203,101.004074 
	C11.110677,97.638695 11.073151,94.273323 11.103971,90.455399 
z"/>
<path fill="#932394" opacity="1.000000" stroke="none" 
	d="
M11.081324,101.408554 
	C12.005633,102.453133 12.863064,103.902199 13.807476,106.018707 
	C12.936630,107.125511 11.978803,107.564850 11.020975,108.004196 
	C11.004837,107.540009 10.988698,107.075829 10.949884,106.264603 
	C10.956288,104.549385 10.985367,103.181206 11.081324,101.408554 
z"/>
<path fill="#5B19C4" opacity="1.000000" stroke="none" 
	d="
M12.998917,147.003586 
	C12.996931,147.451218 12.994946,147.898849 12.766676,148.788666 
	C12.270830,149.434433 12.079658,149.695450 11.966871,150.013885 
	C11.966871,150.013885 11.546463,149.999100 11.337883,149.985901 
	C11.087908,148.910629 11.046514,147.848526 11.308234,146.411377 
	C12.073872,146.358749 12.536394,146.681168 12.998917,147.003586 
z"/>
<path fill="#5713D9" opacity="1.000000" stroke="none" 
	d="
M11.974564,150.339325 
	C12.079658,149.695450 12.270830,149.434433 12.760592,149.124344 
	C12.988674,149.767853 12.996556,150.517868 13.014103,151.643677 
	C12.835733,152.370499 12.647698,152.721527 12.459665,153.072571 
	C12.300530,152.269974 12.141394,151.467377 11.974564,150.339325 
z"/>
<path fill="#6815B7" opacity="1.000000" stroke="none" 
	d="
M13.274422,146.877930 
	C12.536394,146.681168 12.073872,146.358749 11.316227,146.012207 
	C11.014379,145.817535 11.007651,145.647003 10.987780,145.220383 
	C11.003672,142.285446 11.032708,139.606598 11.321737,136.576492 
	C12.721317,136.484512 13.860906,136.743790 15.054900,137.395355 
	C16.761997,138.525040 18.382202,139.795212 20.073563,139.898346 
	C24.839426,140.188934 29.634537,139.999832 34.703789,139.999832 
	C34.827831,142.079269 34.914909,143.539032 34.533585,144.999207 
	C28.042957,145.000168 22.020725,145.000687 15.998493,145.001221 
	C15.182305,145.584915 14.366117,146.168594 13.274422,146.877930 
z"/>
<path fill="#7916B1" opacity="1.000000" stroke="none" 
	d="
M15.000494,137.003052 
	C13.860906,136.743790 12.721317,136.484512 11.347792,136.130127 
	C11.086140,132.000626 11.058426,127.966240 11.022970,123.469421 
	C11.029427,122.561417 11.043625,122.115837 11.461924,121.336586 
	C12.909337,121.001534 13.952649,121.000160 14.997223,121.249626 
	C14.998875,121.667694 14.999266,121.834915 14.999031,122.441757 
	C15.331380,126.586372 15.664354,130.291351 15.872378,134.291809 
	C15.498449,135.392548 15.249472,136.197800 15.000494,137.003052 
z"/>
<path fill="#BF3272" opacity="1.000000" stroke="none" 
	d="
M182.972809,60.671471 
	C181.979202,61.107029 180.274887,60.941448 180.122726,61.351612 
	C178.075577,66.870605 173.408966,64.901360 169.694565,64.935516 
	C153.419388,65.085205 137.141403,65.080978 120.865898,64.950569 
	C115.993149,64.911537 111.245583,66.917290 106.184669,65.209160 
	C104.582054,64.668259 102.149338,66.586823 99.718140,67.607544 
	C97.543800,65.923241 95.747818,64.011246 93.951836,62.099251 
	C94.760941,60.174049 95.570053,58.248848 96.689583,56.161064 
	C118.607262,55.999043 140.214859,55.934437 161.821564,56.045692 
	C167.263397,56.073711 172.702347,56.664673 178.571625,56.997551 
	C180.076080,57.665550 181.151566,58.332932 182.599823,59.002060 
	C182.976288,59.448536 182.979980,59.893257 182.972809,60.671471 
z"/>
<path fill="#8B2199" opacity="1.000000" stroke="none" 
	d="
M11.011757,108.421600 
	C11.978803,107.564850 12.936630,107.125511 13.947558,106.343079 
	C14.000658,106.000000 14.498341,105.998337 15.215759,105.998566 
	C23.616255,105.999962 31.299330,106.001144 38.988579,106.438698 
	C39.005039,108.911201 39.015331,110.947342 38.657288,112.995979 
	C36.813499,113.888878 35.338036,114.769272 33.862572,115.649666 
	C33.892006,115.262489 33.921436,114.875313 33.950867,114.488129 
	C27.633648,113.993675 21.316429,113.499222 14.602266,113.002533 
	C13.148633,113.005165 12.091944,113.010025 11.035254,113.014877 
	C11.024349,111.622917 11.013444,110.230965 11.011757,108.421600 
z"/>
<path fill="#881AAA" opacity="1.000000" stroke="none" 
	d="
M11.022421,113.457520 
	C12.091944,113.010025 13.148633,113.005165 14.602184,113.446136 
	C14.998017,116.260902 14.996989,118.629837 14.995962,120.998779 
	C13.952649,121.000160 12.909337,121.001534 11.477777,121.002678 
	C11.062883,118.635017 11.036236,116.267593 11.022421,113.457520 
z"/>
<path fill="#A02091" opacity="1.000000" stroke="none" 
	d="
M179.007935,90.990234 
	C180.142868,91.249100 181.277786,91.507973 182.645279,91.861176 
	C182.898804,95.332008 182.919769,98.708511 182.529083,102.543129 
	C181.079300,103.001343 180.041183,103.001434 179.002426,102.667427 
	C179.001205,101.887871 179.000610,101.442406 179.000000,100.547195 
	C179.000229,97.398903 179.000458,94.700363 179.001846,91.748932 
	C179.004639,91.327431 179.006287,91.158836 179.007935,90.990234 
z"/>
<path fill="#941E9C" opacity="1.000000" stroke="none" 
	d="
M179.003052,103.001526 
	C180.041183,103.001434 181.079300,103.001343 182.502823,103.000717 
	C182.916397,103.446533 182.944580,103.892891 182.981125,104.674866 
	C182.969833,107.382957 182.950195,109.755417 182.517975,112.567215 
	C181.072296,113.003143 180.039185,112.999741 179.005005,112.552719 
	C179.002609,109.741234 179.001312,107.373367 179.000656,104.671486 
	C179.001892,103.892159 179.002472,103.446846 179.003052,103.001526 
z"/>
<path fill="#881AAA" opacity="1.000000" stroke="none" 
	d="
M179.006088,112.996338 
	C180.039185,112.999741 181.072296,113.003143 182.488342,113.011154 
	C182.893707,115.365028 182.916122,117.714279 182.900314,120.500626 
	C181.834503,120.959015 180.806931,120.980324 179.389679,121.000816 
	C179.000000,121.000000 179.000000,120.996338 179.000320,120.559280 
	C179.000229,118.081688 178.999802,116.041145 179.000488,113.749542 
	C179.003098,113.331085 179.004593,113.163712 179.006088,112.996338 
z"/>
<path fill="#6513B8" opacity="1.000000" stroke="none" 
	d="
M16.044626,145.390244 
	C22.020725,145.000687 28.042957,145.000168 34.892815,144.938004 
	C37.525158,144.232666 39.329876,143.588974 41.590336,142.959381 
	C46.347511,142.927460 50.648949,142.881439 55.301247,142.888794 
	C56.474094,142.628326 57.296078,142.314468 58.476097,142.005676 
	C60.532818,142.862549 62.231503,143.714340 63.930187,144.566147 
	C63.848125,144.117676 63.766064,143.669220 63.684002,143.220749 
	C69.965797,141.871613 76.247589,140.522491 83.224266,139.024124 
	C83.885498,139.369232 85.444229,140.182785 87.334778,140.998383 
	C88.109001,141.003540 88.551422,141.006653 89.079674,141.392838 
	C91.776299,142.184540 94.387077,142.593185 97.044029,143.311646 
	C97.673378,143.437500 98.593086,143.418579 98.778923,143.039703 
	C99.430939,141.710403 99.830307,140.257172 100.497635,138.860550 
	C100.669693,138.870102 101.005180,138.949020 101.088394,139.218994 
	C101.472427,139.963623 101.773247,140.438263 102.214935,141.188324 
	C102.925781,140.643661 103.495750,139.823608 104.460884,138.993927 
	C107.377350,138.982727 110.744583,137.932648 112.271049,139.164185 
	C118.335922,144.057266 124.016014,142.598297 130.289902,139.349030 
	C130.748657,140.412308 131.225128,141.516663 131.806137,142.863312 
	C133.317612,142.265213 134.656693,141.735336 136.096054,141.165771 
	C138.676636,146.728210 142.824966,145.403671 147.461594,144.000305 
	C153.961136,144.002899 159.991562,144.002716 166.389343,143.997070 
	C168.169327,143.659866 169.581909,143.328125 171.205475,143.258926 
	C172.943863,143.346848 174.471313,143.172195 175.998749,142.997559 
	C176.332382,144.736633 176.666016,146.475723 176.998596,148.606171 
	C125.438606,148.998428 73.879646,148.996552 22.320696,149.008057 
	C19.656998,149.008652 16.798880,149.499939 16.044626,145.390244 
z"/>
<path fill="#020202" opacity="1.000000" stroke="none" 
	d="
M54.950386,142.835419 
	C50.648949,142.881439 46.347511,142.927460 41.547546,142.560028 
	C40.759190,140.100052 40.469357,138.053543 40.539379,135.910767 
	C40.872585,133.511139 40.845943,131.207764 40.853378,128.466232 
	C40.809822,125.686935 40.732189,123.345795 40.751747,120.563721 
	C40.748970,117.716721 40.649006,115.310638 40.633827,112.452156 
	C40.637886,106.995789 40.557159,101.991829 40.476433,96.987869 
	C40.581905,92.004700 40.687374,87.021530 40.762634,81.581429 
	C41.154652,79.467575 41.903721,77.818016 41.941208,76.152435 
	C42.085320,69.749466 42.001484,63.341366 42.003395,56.466217 
	C42.004120,54.699905 42.004120,53.402561 42.004120,50.858139 
	C43.250214,53.016777 43.901508,54.145035 44.697613,55.524151 
	C45.689026,55.053150 46.738453,54.554585 46.738163,54.554726 
	C50.316925,54.034283 47.122700,62.072025 52.793243,57.152710 
	C54.010757,57.782108 54.934010,58.614120 56.017418,59.988293 
	C56.474941,60.968014 56.772316,61.405579 57.056133,62.243446 
	C57.069546,69.833328 62.132946,72.254768 67.943909,74.047134 
	C68.038788,74.035995 68.177643,73.904762 68.164062,74.222000 
	C69.113274,75.335442 70.076080,76.131630 71.161530,77.242188 
	C75.522369,82.639175 79.760559,87.721809 84.295837,92.981552 
	C85.722740,94.089035 86.852539,95.019402 88.223846,96.199844 
	C88.976929,95.166504 89.907646,93.890717 89.931190,92.598396 
	C90.070496,84.951385 90.055031,77.299782 89.952484,69.651588 
	C89.931587,68.092796 89.316849,66.541962 88.998993,64.573654 
	C89.060303,62.780964 89.098473,61.402069 89.469818,60.015366 
	C90.476112,60.009003 91.149223,60.010456 91.822342,60.011909 
	C92.339462,60.637169 92.856583,61.262432 93.662766,61.993473 
	C95.747818,64.011246 97.543800,65.923241 99.649200,67.984177 
	C101.884140,70.530167 103.809654,72.927216 105.873024,76.046875 
	C105.548042,80.556015 106.977730,82.523232 111.009689,81.989761 
	C111.000000,82.000000 111.020462,81.980621 111.013580,82.361481 
	C112.452522,85.240303 113.898346,87.738274 115.267700,90.104126 
	C116.329765,89.674255 117.199753,89.322128 118.348694,89.092499 
	C119.430214,90.120918 120.232780,91.026840 121.024536,92.318871 
	C121.703194,93.807198 122.392670,94.909401 123.170197,96.326767 
	C124.847183,97.698097 126.436096,98.754280 128.260406,99.883888 
	C128.495819,99.957314 128.979233,100.054924 128.990692,100.029114 
	C129.002167,100.003304 128.947800,100.018608 129.030487,100.267456 
	C129.404907,100.689796 129.696655,100.863281 129.993790,101.016312 
	C129.999176,100.995857 129.961105,101.014320 130.011505,101.259758 
	C130.107651,101.665855 130.153397,101.826508 130.195526,102.278938 
	C130.795502,102.991615 131.399094,103.412514 132.310974,103.997726 
	C134.767990,106.703751 136.916733,109.245453 139.029373,111.866501 
	C138.993286,111.945839 138.944733,112.113258 138.971115,112.483093 
	C142.000305,117.230774 145.003113,121.608620 147.834045,126.244049 
	C146.774033,127.335632 145.885910,128.169647 144.552170,129.003326 
	C140.699142,128.686569 137.291718,128.370148 133.600983,127.877808 
	C132.161469,126.222374 131.005264,124.742867 129.858551,122.879578 
	C127.960335,118.383377 127.003105,113.413277 121.101822,112.497559 
	C119.385765,110.422714 117.731033,108.699532 115.965134,106.737030 
	C115.570694,106.296593 115.287445,106.095467 114.955124,105.535202 
	C114.251465,103.692513 113.812180,102.056862 112.895065,100.758797 
	C111.256393,98.439468 110.198128,94.655914 105.636902,97.048874 
	C104.846909,96.957199 104.394463,96.913223 103.960541,96.474518 
	C104.222488,92.952827 103.155602,90.817627 100.062958,90.227180 
	C99.024315,98.431984 98.021179,106.356331 96.989647,114.504990 
	C97.480637,115.747490 98.663506,117.618637 98.901932,119.603256 
	C99.273781,122.698318 99.004974,125.870346 99.000793,129.369995 
	C98.055618,130.481323 97.117279,131.232407 96.008430,131.694885 
	C94.389084,130.159714 92.940247,128.913177 91.482697,127.634827 
	C91.473991,127.603035 91.452080,127.540848 91.336670,127.236702 
	C89.834831,125.575447 88.448402,124.218346 86.929802,122.564560 
	C85.554321,120.796272 84.311005,119.324661 82.918266,117.557228 
	C81.123901,115.174522 79.478973,113.087639 77.791229,110.662186 
	C75.212868,107.522560 72.677330,104.721504 69.994705,101.619110 
	C68.225281,99.228439 66.602951,97.139107 64.988113,94.628784 
	C64.997269,92.805405 64.998940,91.403008 65.360199,90.069901 
	C68.062607,93.933243 68.062607,93.933243 70.273270,92.956734 
	C68.921028,91.149406 67.453491,89.187996 65.402885,86.447281 
	C65.177658,88.430038 65.088524,89.214714 64.648514,89.943802 
	C62.822010,89.277031 61.346378,88.665855 59.653137,88.036232 
	C59.435528,88.017776 59.000149,87.982788 59.000610,87.629776 
	C57.987015,86.848839 56.972954,86.420906 55.594631,85.918777 
	C54.390549,84.211845 53.550724,82.579117 52.404659,80.351021 
	C51.335930,86.426018 50.454090,91.438644 49.578030,96.418457 
	C51.920311,95.159081 53.935986,94.075302 56.063259,93.212730 
	C56.357128,93.733894 56.619923,93.920349 56.930161,94.327103 
	C56.936954,95.105705 56.976826,95.550491 56.709797,96.280151 
	C56.284676,102.041771 56.166451,107.518517 56.034321,113.463959 
	C55.703766,121.463173 55.331692,128.992340 55.148636,136.526093 
	C55.128365,137.360382 56.187153,138.220901 56.795609,139.389221 
	C56.872803,140.140198 56.899879,140.571213 56.620209,141.024139 
	C55.859104,141.642517 55.404747,142.238968 54.950386,142.835419 
M49.356834,62.572582 
	C50.188351,63.179108 51.019867,63.785637 51.851379,64.392166 
	C52.128109,63.529400 52.404839,62.666634 52.681568,61.803871 
	C51.688263,61.861729 50.694962,61.919586 49.356834,62.572582 
M114.609642,95.797417 
	C114.213943,95.793533 113.818039,95.785858 113.423615,95.806404 
	C113.413155,95.806953 113.407890,96.257111 113.418289,96.257904 
	C113.812340,96.287651 114.208519,96.289223 114.609642,95.797417 
z"/>
<path fill="#BF3172" opacity="1.000000" stroke="none" 
	d="
M86.533096,55.998352 
	C87.267838,56.196960 87.533852,56.396469 87.899002,57.254986 
	C87.959023,59.939743 87.919907,61.965492 87.545700,63.931175 
	C84.900040,61.795193 82.821754,58.749828 80.439659,64.146729 
	C79.852463,65.477074 76.499634,65.376259 74.724083,66.442665 
	C72.163956,67.980278 66.691505,64.688805 67.006920,71.230057 
	C67.004738,71.459259 67.014412,71.917595 66.703316,71.784378 
	C64.222336,68.782616 62.052452,65.914070 59.882568,63.045532 
	C59.718086,61.638321 59.333523,60.213100 59.446785,58.828613 
	C59.577953,57.225204 60.146851,55.657604 60.525715,54.074455 
	C61.020767,54.099380 61.515820,54.124306 62.010868,54.149231 
	C62.666904,55.184471 63.322941,56.219711 63.183231,55.999249 
	C71.363182,55.999249 78.713776,55.999249 86.533096,55.998352 
z"/>
<path fill="#15030F" opacity="1.000000" stroke="none" 
	d="
M59.618225,62.932762 
	C62.052452,65.914070 64.222336,68.782616 66.809982,72.062866 
	C67.434853,73.002480 67.641945,73.530380 67.849037,74.058281 
	C62.132946,72.254768 57.069546,69.833328 57.291222,62.259602 
	C57.539867,61.875446 58.000023,61.773098 58.000023,61.773098 
	C58.451309,62.122063 58.902596,62.471031 59.618225,62.932762 
z"/>
<path fill="#BF3172" opacity="1.000000" stroke="none" 
	d="
M57.954487,61.487373 
	C58.000023,61.773098 57.539867,61.875446 57.304779,61.859291 
	C56.772316,61.405579 56.474941,60.968014 56.169159,60.263336 
	C56.743481,60.398026 57.326214,60.799835 57.954487,61.487373 
z"/>
<path fill="#72002B" opacity="1.000000" stroke="none" 
	d="
M87.880798,63.991245 
	C87.919907,61.965492 87.959023,59.939743 88.007919,57.483128 
	C88.193588,57.048840 88.369476,57.045414 88.782104,57.404060 
	C89.024033,58.185509 89.029228,58.604881 89.035286,59.276508 
	C89.069633,59.693569 89.103134,59.858372 89.136642,60.023174 
	C89.098473,61.402069 89.060303,62.780964 88.789780,64.590714 
	C88.557434,65.021568 88.141731,65.081741 88.077690,64.808830 
	C87.969360,64.354355 87.925079,64.172798 87.880798,63.991245 
z"/>
<path fill="#3B0518" opacity="1.000000" stroke="none" 
	d="
M89.034431,59.024250 
	C89.029228,58.604881 89.024033,58.185509 89.041397,57.453007 
	C89.656387,57.570812 90.248817,58.001751 90.628311,58.708916 
	C89.955063,58.998180 89.494743,59.011215 89.034431,59.024250 
z"/>
<path fill="#100009" opacity="1.000000" stroke="none" 
	d="
M89.035286,59.276508 
	C89.494743,59.011215 89.955063,58.998180 90.760864,58.962440 
	C91.466667,58.994667 91.725052,59.186718 91.851913,59.763901 
	C91.149223,60.010456 90.476112,60.009003 89.469818,60.015366 
	C89.103134,59.858372 89.069633,59.693569 89.035286,59.276508 
z"/>
<path fill="#C03272" opacity="1.000000" stroke="none" 
	d="
M15.465000,64.998123 
	C14.997220,62.627464 14.998191,60.258289 14.999486,57.445168 
	C22.411516,56.786976 29.822672,56.535244 37.235928,56.425911 
	C37.864761,56.416637 38.507629,57.358711 39.477104,57.927773 
	C39.854290,60.041065 39.898346,62.085411 39.876568,64.563782 
	C31.851740,64.998405 23.892744,64.999001 15.465000,64.998123 
z"/>
<path fill="#9F2888" opacity="1.000000" stroke="none" 
	d="
M15.994434,94.000885 
	C15.663549,92.899391 15.332663,91.797905 14.997184,90.345345 
	C14.995201,89.550674 14.997812,89.107071 15.002708,88.330666 
	C22.723738,88.295868 30.442478,88.593864 38.575287,88.946060 
	C38.994236,90.389076 38.999115,91.777916 38.646149,93.545914 
	C36.968666,93.412201 35.620590,92.398582 34.334240,92.471649 
	C28.211769,92.819382 22.106089,93.462738 15.994434,94.000885 
z"/>
<path fill="#9A268D" opacity="1.000000" stroke="none" 
	d="
M15.835340,94.366333 
	C22.106089,93.462738 28.211769,92.819382 34.334240,92.471649 
	C35.620590,92.398582 36.968666,93.412201 38.641777,93.962540 
	C39.001835,94.748993 39.008419,95.497993 39.010605,96.997482 
	C38.995956,98.499878 38.985703,99.251762 38.610397,100.042351 
	C36.542198,100.573296 34.856449,101.408302 33.132748,101.495819 
	C27.095684,101.802345 21.045536,101.851173 15.000358,101.997864 
	C15.225655,99.575836 15.450951,97.153809 15.835340,94.366333 
z"/>
<path fill="#A432AD" opacity="1.000000" stroke="none" 
	d="
M38.975449,100.003654 
	C38.985703,99.251762 38.995956,98.499878 39.014290,97.371971 
	C39.345760,96.997971 39.669151,96.999184 40.234489,96.993729 
	C40.557159,101.991829 40.637886,106.995789 40.379826,112.462639 
	C39.702564,112.944847 39.364094,112.964165 39.025620,112.983475 
	C39.015331,110.947342 39.005039,108.911201 38.995537,106.010117 
	C38.989368,103.431328 38.982407,101.717491 38.975449,100.003654 
z"/>
<path fill="#791CA4" opacity="1.000000" stroke="none" 
	d="
M179.002472,121.001221 
	C178.676819,124.391777 178.348694,127.781120 177.642517,131.581039 
	C175.845016,131.664139 174.425552,131.336655 172.615143,130.995041 
	C166.475006,127.859444 160.682678,125.005165 153.711578,128.018494 
	C153.481827,128.007797 153.033234,127.906059 153.034515,127.560638 
	C152.616898,126.166618 152.197983,125.118011 152.075592,123.873878 
	C154.915909,117.586487 157.168076,124.376465 159.498184,123.345222 
	C162.112640,122.237076 164.789215,121.298973 167.523880,121.077263 
	C171.326447,120.768967 175.172546,120.997559 179.000000,120.996338 
	C179.000000,120.996338 179.000000,121.000000 179.002472,121.001221 
z"/>
<path fill="#6D18AF" opacity="1.000000" stroke="none" 
	d="
M173.006104,131.009155 
	C174.425552,131.336655 175.845016,131.664139 177.633453,131.996124 
	C178.153793,133.179825 178.305145,134.359055 178.725739,135.773682 
	C178.088928,138.128342 177.182892,140.247589 176.137802,142.682190 
	C174.471313,143.172195 172.943863,143.346848 171.266357,142.906738 
	C172.480118,141.112167 173.843979,139.932327 174.877762,139.038010 
	C173.283752,136.971130 172.139481,135.487396 171.339569,133.949493 
	C172.124649,132.933258 172.565384,131.971207 173.006104,131.009155 
z"/>
<path fill="#AB2C7E" opacity="1.000000" stroke="none" 
	d="
M181.004028,80.583710 
	C180.339111,81.759659 179.673325,82.527977 178.582367,83.639442 
	C173.087433,83.988037 168.017715,83.996971 162.947983,83.998222 
	C152.464508,84.000801 141.980591,84.047058 131.498077,83.947220 
	C129.950500,83.932480 128.418320,83.178719 126.863739,82.836197 
	C123.859200,82.174202 120.843765,81.561630 118.065010,80.977386 
	C117.531960,83.772514 117.221138,85.402321 116.607765,86.886566 
	C114.543625,85.154205 112.782043,83.567413 111.020462,81.980621 
	C111.020462,81.980621 111.000000,82.000000 110.886360,81.682632 
	C109.503174,79.624405 108.233635,77.883560 106.964081,76.142708 
	C108.393242,73.847092 109.822395,71.551476 111.603371,68.690750 
	C114.119438,73.918732 118.408325,74.050667 122.898125,74.028465 
	C138.147247,73.953064 153.396988,74.005142 168.646469,73.990875 
	C170.132721,73.989487 171.648010,74.029778 173.099976,73.771019 
	C179.194489,72.684868 180.618469,73.801155 181.004028,80.583710 
z"/>
<path fill="#0A020A" opacity="1.000000" stroke="none" 
	d="
M106.729843,76.093292 
	C108.233635,77.883560 109.503174,79.624405 110.896057,81.672386 
	C106.977730,82.523232 105.548042,80.556015 106.020042,76.352539 
	C106.029198,75.935593 106.495598,76.043877 106.729843,76.093292 
z"/>
<path fill="#A22984" opacity="1.000000" stroke="none" 
	d="
M116.910324,87.032127 
	C117.221138,85.402321 117.531960,83.772514 118.065010,80.977386 
	C120.843765,81.561630 123.859200,82.174202 126.863739,82.836197 
	C128.418320,83.178719 129.950500,83.932480 131.498077,83.947220 
	C141.980591,84.047058 152.464508,84.000801 162.947983,83.998222 
	C168.017715,83.996971 173.087433,83.988037 178.575531,83.994034 
	C178.997528,86.042946 179.001160,88.080399 179.006348,90.554047 
	C179.006287,91.158836 179.004639,91.327431 178.572845,91.746918 
	C167.111069,91.665306 156.076309,91.007324 145.048996,91.114853 
	C137.711533,91.186409 129.916443,88.935158 123.049194,93.723091 
	C122.286461,92.943336 121.660904,92.438049 121.035347,91.932755 
	C120.232780,91.026840 119.430214,90.120918 118.249763,88.823547 
	C117.551361,87.965439 117.230843,87.498787 116.910324,87.032127 
z"/>
<path fill="#932394" opacity="1.000000" stroke="none" 
	d="
M38.610397,100.042351 
	C38.982407,101.717491 38.989368,103.431328 38.989368,105.573746 
	C31.299330,106.001144 23.616255,105.999962 15.464595,105.996643 
	C14.997087,104.928841 14.998161,103.863167 14.999798,102.397682 
	C21.045536,101.851173 27.095684,101.802345 33.132748,101.495819 
	C34.856449,101.408302 36.542198,100.573296 38.610397,100.042351 
z"/>
<path fill="#6E19B0" opacity="1.000000" stroke="none" 
	d="
M40.179527,136.007034 
	C40.469357,138.053543 40.759190,140.100052 41.091805,142.545914 
	C39.329876,143.588974 37.525158,144.232666 35.361214,144.937561 
	C34.914909,143.539032 34.827831,142.079269 34.703789,139.999832 
	C29.634537,139.999832 24.839426,140.188934 20.073563,139.898346 
	C18.382202,139.795212 16.761997,138.525040 15.054899,137.395355 
	C15.249472,136.197800 15.498449,135.392548 16.339499,134.292923 
	C22.825216,134.278885 28.718864,134.559204 34.865257,134.851562 
	C34.946522,133.918091 35.139206,131.704651 35.353046,129.248230 
	C37.136211,129.157150 38.584530,129.083160 40.022255,129.446945 
	C40.067619,131.925476 40.123573,133.966263 40.179527,136.007034 
z"/>
<path fill="#771BA7" opacity="1.000000" stroke="none" 
	d="
M40.032845,129.009186 
	C38.584530,129.083160 37.136211,129.157150 35.353046,129.248230 
	C35.139206,131.704651 34.946522,133.918091 34.865257,134.851562 
	C28.718864,134.559204 22.825216,134.278885 16.464451,133.997437 
	C15.664354,130.291351 15.331380,126.586372 15.466881,122.440918 
	C24.179012,121.765862 32.470936,122.729431 40.654560,121.004654 
	C40.732189,123.345795 40.809822,125.686935 40.655212,128.480225 
	C40.422966,128.932388 40.032845,129.009186 40.032845,129.009186 
z"/>
<path fill="#821E9F" opacity="1.000000" stroke="none" 
	d="
M40.751747,120.563721 
	C32.470936,122.729431 24.179012,121.765862 15.467506,122.001289 
	C14.999266,121.834915 14.998875,121.667694 14.997223,121.249626 
	C14.996989,118.629837 14.998017,116.260902 14.999127,113.448364 
	C21.316429,113.499222 27.633648,113.993675 33.950867,114.488129 
	C33.921436,114.875313 33.892006,115.262489 33.862572,115.649666 
	C35.338036,114.769272 36.813499,113.888878 38.657288,112.995979 
	C39.364094,112.964165 39.702564,112.944847 40.295040,112.915047 
	C40.649006,115.310638 40.748970,117.716721 40.751747,120.563721 
z"/>
<path fill="#9B268B" opacity="1.000000" stroke="none" 
	d="
M123.186371,93.997559 
	C129.916443,88.935158 137.711533,91.186409 145.048996,91.114853 
	C156.076309,91.007324 167.111069,91.665306 178.571686,91.999817 
	C179.000458,94.700363 179.000229,97.398903 178.576935,100.538239 
	C170.606110,100.652596 163.049118,100.460831 155.514374,99.944740 
	C151.554626,99.673515 147.633759,98.834793 143.921463,98.285774 
	C141.797287,99.264290 138.799789,101.825401 137.217880,101.136391 
	C133.543457,99.535995 132.869904,101.278679 132.002686,103.833405 
	C131.399094,103.412514 130.795502,102.991615 130.336929,102.160561 
	C130.308334,101.505035 130.134720,101.259682 129.961105,101.014320 
	C129.961105,101.014320 129.999176,100.995857 129.894318,100.780396 
	C129.508911,100.382820 129.228348,100.200714 128.947800,100.018608 
	C128.947800,100.018608 129.002167,100.003304 128.939316,99.851105 
	C128.592651,99.736092 128.308823,99.773285 128.025009,99.810471 
	C126.436096,98.754280 124.847183,97.698097 123.383636,96.216049 
	C123.401466,95.192642 123.293915,94.595100 123.186371,93.997559 
z"/>
<path fill="#942393" opacity="1.000000" stroke="none" 
	d="
M132.310974,103.997726 
	C132.869904,101.278679 133.543457,99.535995 137.217880,101.136391 
	C138.799789,101.825401 141.797287,99.264290 143.921463,98.285774 
	C147.633759,98.834793 151.554626,99.673515 155.514374,99.944740 
	C163.049118,100.460831 170.606110,100.652596 178.576935,100.987999 
	C179.000610,101.442406 179.001205,101.887871 179.002441,102.667427 
	C179.002472,103.446846 179.001892,103.892159 178.616791,104.836823 
	C169.669144,105.557457 161.100296,105.658615 152.546005,106.065903 
	C149.593246,106.206497 146.676743,107.109108 143.035782,107.797462 
	C142.693008,107.313362 141.897186,105.847122 140.763153,104.721649 
	C140.126892,104.090218 138.931152,104.022537 137.987488,103.700859 
	C137.899719,104.718025 137.606812,105.769409 137.769501,106.744804 
	C138.053940,108.450203 138.618362,110.108894 139.065460,111.787163 
	C136.916733,109.245453 134.767990,106.703751 132.310974,103.997726 
z"/>
<path fill="#8A2199" opacity="1.000000" stroke="none" 
	d="
M139.029373,111.866501 
	C138.618362,110.108894 138.053940,108.450203 137.769501,106.744804 
	C137.606812,105.769409 137.899719,104.718025 137.987488,103.700859 
	C138.931152,104.022537 140.126892,104.090218 140.763153,104.721649 
	C141.897186,105.847122 142.693008,107.313362 143.035782,107.797462 
	C146.676743,107.109108 149.593246,106.206497 152.546005,106.065903 
	C161.100296,105.658615 169.669144,105.557457 178.616150,105.170822 
	C179.001312,107.373367 179.002609,109.741234 179.005005,112.552719 
	C179.004593,113.163712 179.003098,113.331085 178.585876,113.696022 
	C172.520050,114.001747 166.870300,114.161942 161.219742,114.199829 
	C157.440460,114.225174 153.115433,111.571121 150.421295,116.557556 
	C150.391663,116.612381 150.113495,116.532928 149.645355,116.484528 
	C149.232590,115.519363 148.759872,114.414032 148.269058,113.266373 
	C146.277008,113.919716 144.573090,114.478554 142.587082,114.904007 
	C141.184906,113.884834 140.064819,112.999046 138.944733,112.113258 
	C138.944733,112.113258 138.993286,111.945839 139.029373,111.866501 
z"/>
<path fill="#821EA0" opacity="1.000000" stroke="none" 
	d="
M142.869171,115.037399 
	C144.573090,114.478554 146.277008,113.919716 148.269058,113.266373 
	C148.759872,114.414032 149.232590,115.519363 149.645355,116.484528 
	C150.113495,116.532928 150.391663,116.612381 150.421295,116.557556 
	C153.115433,111.571121 157.440460,114.225174 161.219742,114.199829 
	C166.870300,114.161942 172.520050,114.001747 178.584763,113.947098 
	C178.999802,116.041145 179.000229,118.081688 179.000320,120.559280 
	C175.172546,120.997559 171.326447,120.768967 167.523880,121.077263 
	C164.789215,121.298973 162.112640,122.237076 159.498184,123.345222 
	C157.168076,124.376465 154.915909,117.586487 151.784149,123.725883 
	C148.420517,120.861412 145.644852,117.949402 142.869171,115.037399 
z"/>
<path fill="#6C16B1" opacity="1.000000" stroke="none" 
	d="
M146.992462,143.997559 
	C142.824966,145.403671 138.676636,146.728210 136.096054,141.165771 
	C134.656693,141.735336 133.317612,142.265213 131.806137,142.863312 
	C131.225128,141.516663 130.748657,140.412308 130.289902,139.349030 
	C124.016014,142.598297 118.335922,144.057266 112.271049,139.164185 
	C110.744583,137.932648 107.377350,138.982727 104.429024,138.666412 
	C103.979416,137.910614 103.956825,137.472656 104.363358,137.013123 
	C111.064255,136.660965 117.395569,136.745773 123.587471,135.858078 
	C127.924927,135.236237 132.987305,135.620667 136.329010,131.194916 
	C140.106339,134.503922 143.549744,137.760086 147.060852,141.231598 
	C147.257217,141.725037 147.312531,142.017014 147.215393,142.740906 
	C147.088348,143.438461 147.040405,143.718002 146.992462,143.997559 
z"/>
<path fill="#7219AA" opacity="1.000000" stroke="none" 
	d="
M87.061966,122.861237 
	C88.448402,124.218346 89.834831,125.575447 91.001762,127.457352 
	C86.987244,131.832794 92.150597,134.593109 92.129700,138.311630 
	C93.403084,142.473160 90.211746,140.391922 88.993835,141.009766 
	C88.551422,141.006653 88.109001,141.003540 87.297897,140.647675 
	C84.729927,136.636642 82.747261,134.001907 77.190346,134.653214 
	C72.010078,135.260376 65.584183,138.478897 61.020573,132.248672 
	C60.648178,131.740265 59.137680,132.065506 58.096703,131.577347 
	C58.074608,129.434021 58.111820,127.716736 58.508636,126.009094 
	C59.531956,126.402184 60.573578,126.635162 60.796181,127.194237 
	C61.971752,130.146790 63.327221,131.784271 66.633453,129.411423 
	C67.551201,128.752762 69.196808,129.026627 70.509727,129.015076 
	C74.975563,128.975739 79.441948,129.000046 83.792877,129.000046 
	C84.961105,126.806305 86.011536,124.833771 87.061966,122.861237 
z"/>
<path fill="#6C17B0" opacity="1.000000" stroke="none" 
	d="
M58.156013,132.003387 
	C59.137680,132.065506 60.648178,131.740265 61.020573,132.248672 
	C65.584183,138.478897 72.010078,135.260376 77.190346,134.653214 
	C82.747261,134.001907 84.729927,136.636642 86.966080,140.645630 
	C85.444229,140.182785 83.885498,139.369232 83.224266,139.024124 
	C76.247589,140.522491 69.965797,141.871613 63.684002,143.220749 
	C63.766064,143.669220 63.848125,144.117676 63.930187,144.566147 
	C62.231503,143.714340 60.532818,142.862549 58.345436,141.766052 
	C57.546810,141.348297 57.236881,141.175262 56.926956,141.002213 
	C56.899879,140.571213 56.872803,140.140198 56.904716,139.000137 
	C57.361145,136.195175 57.758579,134.099289 58.156013,132.003387 
z"/>
<path fill="#6F18BA" opacity="1.000000" stroke="none" 
	d="
M170.995209,134.003662 
	C172.139481,135.487396 173.283752,136.971130 174.877762,139.038010 
	C173.843979,139.932327 172.480118,141.112167 171.055389,142.644196 
	C169.581909,143.328125 168.169327,143.659866 166.371338,143.700272 
	C165.969269,143.211441 165.952606,143.013931 165.936096,142.577469 
	C165.936279,142.338516 165.856400,141.865097 165.767563,141.564301 
	C164.435928,140.212219 163.193130,139.160904 161.978287,137.707031 
	C163.925507,133.271088 168.093506,135.361603 170.995209,134.003662 
z"/>
<path fill="#6D18B3" opacity="1.000000" stroke="none" 
	d="
M92.001526,138.000000 
	C92.150597,134.593109 86.987244,131.832794 91.117172,127.761505 
	C91.452080,127.540848 91.473991,127.603035 91.337662,127.985809 
	C92.738602,129.914520 94.275879,131.460464 95.983070,133.300385 
	C97.543846,135.346588 98.934715,137.098801 100.325584,138.850998 
	C99.830307,140.257172 99.430939,141.710403 98.778923,143.039703 
	C98.593086,143.418579 97.673378,143.437500 97.043427,142.924377 
	C97.216949,138.590408 94.774261,138.100204 92.001526,138.000000 
z"/>
<path fill="#080215" opacity="1.000000" stroke="none" 
	d="
M100.497635,138.860550 
	C98.934715,137.098801 97.543846,135.346588 96.080353,133.046692 
	C96.064796,132.327179 96.121864,132.155334 96.178940,131.983490 
	C97.117279,131.232407 98.055618,130.481323 99.404694,129.366791 
	C100.893280,129.001511 101.971130,128.999649 103.225494,129.300812 
	C103.330116,131.403763 103.258247,133.203705 103.124649,135.336639 
	C103.093201,136.118622 103.123466,136.567596 103.065567,136.982483 
	C102.977409,136.948410 102.791245,136.981186 102.614029,137.119095 
	C102.216934,137.475937 102.073174,137.736847 101.794083,138.139557 
	C101.293388,138.397217 101.100906,138.633759 101.005180,138.949020 
	C101.005180,138.949020 100.669693,138.870102 100.497635,138.860550 
z"/>
<path fill="#6C17B0" opacity="1.000000" stroke="none" 
	d="
M92.129700,138.311630 
	C94.774261,138.100204 97.216949,138.590408 96.997261,142.614563 
	C94.387077,142.593185 91.776299,142.184540 89.079674,141.392822 
	C90.211746,140.391922 93.403084,142.473160 92.129700,138.311630 
z"/>
<path fill="#742AC6" opacity="1.000000" stroke="none" 
	d="
M165.935928,142.816422 
	C165.952606,143.013931 165.969269,143.211441 166.003952,143.705750 
	C159.991562,144.002716 153.961136,144.002899 147.461594,144.000305 
	C147.040405,143.718002 147.088348,143.438461 147.579041,142.794586 
	C149.971741,142.423615 151.921646,142.416977 154.189926,142.606720 
	C156.714355,142.667847 158.920425,142.532608 161.498718,142.381775 
	C162.863770,142.375046 163.856598,142.383926 164.996185,142.534073 
	C165.393524,142.799561 165.657867,142.846588 165.935928,142.816422 
z"/>
<path fill="#1C032D" opacity="1.000000" stroke="none" 
	d="
M56.620209,141.024139 
	C57.236881,141.175262 57.546810,141.348297 57.987400,141.760986 
	C57.296078,142.314468 56.474094,142.628326 55.301247,142.888794 
	C55.404747,142.238968 55.859104,141.642517 56.620209,141.024139 
z"/>
<path fill="#400379" opacity="1.000000" stroke="none" 
	d="
M103.934242,137.034714 
	C103.956825,137.472656 103.979416,137.910614 104.033859,138.676056 
	C103.495750,139.823608 102.925781,140.643661 102.478271,140.999969 
	C102.727524,139.688843 102.854324,138.841431 102.961014,137.735687 
	C102.891029,137.311981 102.841141,137.146591 102.791245,136.981186 
	C102.791245,136.981186 102.977409,136.948410 103.260681,136.984024 
	C103.543945,137.019638 103.934242,137.034714 103.934242,137.034714 
z"/>
<path fill="#260440" opacity="1.000000" stroke="none" 
	d="
M102.981125,137.994034 
	C102.854324,138.841431 102.727524,139.688843 102.337395,140.724579 
	C101.773247,140.438263 101.472427,139.963623 101.088394,139.218994 
	C101.100906,138.633759 101.293388,138.397217 102.038216,138.133148 
	C102.493813,138.026871 102.981125,137.994034 102.981125,137.994034 
z"/>
<path fill="#7B1BA5" opacity="1.000000" stroke="none" 
	d="
M86.929794,122.564560 
	C86.011536,124.833771 84.961105,126.806305 83.792877,129.000046 
	C79.441948,129.000046 74.975563,128.975739 70.509727,129.015076 
	C69.196808,129.026627 67.551201,128.752762 66.633453,129.411423 
	C63.327221,131.784271 61.971752,130.146790 60.796181,127.194237 
	C60.573578,126.635162 59.531956,126.402184 58.451332,125.567688 
	C58.076042,122.744949 58.117661,120.373260 58.535385,118.012360 
	C66.997673,122.810982 75.047844,122.485580 83.067696,117.853050 
	C84.311005,119.324661 85.554321,120.796272 86.929794,122.564560 
z"/>
<path fill="#AE2D80" opacity="1.000000" stroke="none" 
	d="
M67.943909,74.047134 
	C67.641945,73.530380 67.434853,73.002480 67.121078,72.196091 
	C67.014412,71.917595 67.004738,71.459259 67.371613,71.191490 
	C71.352150,71.204407 76.158424,70.141632 78.318810,72.059425 
	C82.216255,75.519226 84.741188,72.431648 87.906830,72.445984 
	C87.920303,75.595932 87.868286,78.299469 87.419357,81.021851 
	C86.348694,82.262848 85.347878,83.415390 85.069847,84.721756 
	C84.505821,87.371933 84.332886,90.105339 83.998741,92.804443 
	C79.760559,87.721809 75.522369,82.639175 71.295570,76.932556 
	C71.298599,75.313110 71.290237,74.317657 71.281876,73.322205 
	C70.247139,73.516388 69.212387,73.710579 68.177643,73.904762 
	C68.177643,73.904762 68.038788,74.035995 67.943909,74.047134 
z"/>
<path fill="#7418AB" opacity="1.000000" stroke="none" 
	d="
M104.363358,137.013123 
	C103.934242,137.034714 103.543945,137.019638 103.348839,137.018097 
	C103.123466,136.567596 103.093201,136.118622 103.505531,135.325531 
	C105.369850,133.351166 106.791573,131.720932 109.067848,129.110809 
	C109.652733,128.994110 112.421410,127.534241 113.636696,128.360138 
	C118.287285,131.520599 121.085800,129.056168 124.335434,125.996353 
	C125.112480,125.995247 125.556519,125.993935 126.004852,126.362762 
	C127.492126,128.567184 128.975098,130.401459 130.458084,132.235733 
	C130.723007,131.932434 130.987915,131.629150 131.252838,131.325851 
	C130.494720,129.212402 129.736588,127.098961 128.982605,124.739334 
	C128.986725,124.493164 128.995193,124.000816 129.084290,123.820908 
	C129.331894,123.395706 129.557114,123.269821 129.849060,123.263359 
	C131.005264,124.742867 132.161469,126.222374 133.651764,128.205826 
	C134.655594,129.520538 135.325348,130.331299 135.995102,131.142075 
	C132.987305,135.620667 127.924927,135.236237 123.587471,135.858078 
	C117.395569,136.745773 111.064255,136.660965 104.363358,137.013123 
z"/>
<path fill="#040204" opacity="1.000000" stroke="none" 
	d="
M153.871567,142.410309 
	C151.921646,142.416977 149.971741,142.423615 147.658173,142.376556 
	C147.312531,142.017014 147.257217,141.725037 147.029205,140.880127 
	C145.866318,136.615067 137.834503,134.107285 144.997787,129.003662 
	C145.885910,128.169647 146.774033,127.335632 148.159012,126.294357 
	C150.103638,127.057785 151.551407,128.028488 153.000336,129.000305 
	C153.001465,129.001434 153.010056,129.009796 153.011475,129.377228 
	C153.816803,132.234207 153.521317,136.062088 158.408478,134.076935 
	C159.783981,135.514542 160.867157,136.812073 161.950333,138.109604 
	C163.193130,139.160904 164.435928,140.212219 165.497711,141.661591 
	C165.160919,142.170715 165.005173,142.281769 164.849442,142.392807 
	C163.856598,142.383926 162.863770,142.375046 161.062927,142.230103 
	C158.127136,142.199463 155.999344,142.304886 153.871567,142.410309 
z"/>
<path fill="#841D9F" opacity="1.000000" stroke="none" 
	d="
M82.918266,117.557228 
	C75.047844,122.485580 66.997673,122.810982 58.477207,117.598778 
	C57.977596,115.786461 57.912266,114.398514 57.925850,112.756912 
	C58.058853,112.334633 58.112953,112.166008 58.534313,112.005127 
	C61.019329,112.459457 63.189240,113.441093 65.243950,113.240814 
	C69.473251,112.828606 73.640976,111.784706 77.834045,111.000748 
	C79.478973,113.087639 81.123901,115.174522 82.918266,117.557228 
z"/>
<path fill="#050206" opacity="1.000000" stroke="none" 
	d="
M103.048988,128.997803 
	C101.971130,128.999649 100.893280,129.001511 99.411530,129.006561 
	C99.004974,125.870346 99.273781,122.698318 98.901932,119.603256 
	C98.663506,117.618637 97.480637,115.747490 96.989647,114.504990 
	C98.021179,106.356331 99.024315,98.431984 100.062958,90.227180 
	C103.155602,90.817627 104.222488,92.952827 104.026497,96.514252 
	C104.073921,96.948700 104.062172,97.102112 103.730446,97.310287 
	C103.376816,99.381561 103.354912,101.244667 103.311707,103.548477 
	C103.338348,106.914436 103.386284,109.839691 103.323532,113.099640 
	C103.257721,113.665024 103.302597,113.895721 103.315247,114.577721 
	C103.415543,118.691872 103.548058,122.354729 103.534721,126.371399 
	C103.275574,127.482742 103.162285,128.240280 103.048988,128.997803 
z"/>
<path fill="#8D2099" opacity="1.000000" stroke="none" 
	d="
M77.791229,110.662178 
	C73.640976,111.784706 69.473251,112.828606 65.243950,113.240814 
	C63.189240,113.441093 61.019329,112.459457 58.474522,111.558380 
	C58.092754,108.402412 58.138039,105.700951 58.559212,103.007721 
	C62.977596,105.790558 66.669090,104.974510 70.141800,101.920441 
	C72.677330,104.721504 75.212868,107.522560 77.791229,110.662178 
z"/>
<path fill="#98218E" opacity="1.000000" stroke="none" 
	d="
M69.994705,101.619110 
	C66.669090,104.974510 62.977596,105.790558 58.499149,102.590759 
	C57.714363,100.108803 57.365528,98.052040 57.016693,95.995277 
	C56.976826,95.550491 56.936954,95.105705 57.156002,94.266640 
	C57.263432,93.582596 57.111942,93.292824 56.918613,92.666443 
	C56.887753,91.878181 56.898735,91.426529 57.205368,90.862724 
	C58.000732,89.827972 58.500439,88.905380 59.000149,87.982788 
	C59.000149,87.982788 59.435528,88.017776 59.804764,88.342331 
	C61.776207,90.794518 63.378414,92.922142 64.980621,95.049774 
	C66.602951,97.139107 68.225281,99.228439 69.994705,101.619110 
z"/>
<path fill="#100009" opacity="1.000000" stroke="none" 
	d="
M87.816269,81.003006 
	C87.868286,78.299469 87.920303,75.595932 87.969604,72.016312 
	C88.025162,69.120735 88.083450,67.101242 88.141739,65.081741 
	C88.141731,65.081741 88.557434,65.021568 88.766647,65.004517 
	C89.316849,66.541962 89.931587,68.092796 89.952484,69.651588 
	C90.055031,77.299782 90.070496,84.951385 89.931190,92.598396 
	C89.907646,93.890717 88.976929,95.166504 88.252319,95.737839 
	C87.964951,90.351494 87.890617,85.677254 87.816269,81.003006 
z"/>
<path fill="#140112" opacity="1.000000" stroke="none" 
	d="
M152.999191,128.999176 
	C151.551407,128.028488 150.103638,127.057785 148.330872,126.036774 
	C145.003113,121.608620 142.000305,117.230774 138.971115,112.483093 
	C140.064819,112.999046 141.184906,113.884834 142.587082,114.904007 
	C145.644852,117.949402 148.420517,120.861412 151.487625,123.921410 
	C152.197983,125.118011 152.616898,126.166618 153.025848,127.834656 
	C153.010315,128.635788 153.004761,128.817490 152.999191,128.999176 
z"/>
<path fill="#060108" opacity="1.000000" stroke="none" 
	d="
M56.909714,90.974884 
	C56.898735,91.426529 56.887753,91.878181 56.666603,92.651428 
	C56.288181,92.979195 56.119923,92.985359 55.951660,92.991531 
	C53.935986,94.075302 51.920311,95.159081 49.578030,96.418457 
	C50.454090,91.438644 51.335930,86.426018 52.404659,80.351021 
	C53.550724,82.579117 54.390549,84.211845 55.603840,86.303131 
	C56.288113,88.166084 56.598911,89.570480 56.909714,90.974884 
z"/>
<path fill="#0A0111" opacity="1.000000" stroke="none" 
	d="
M144.552170,129.003326 
	C137.834503,134.107285 145.866318,136.615067 146.961502,140.664764 
	C143.549744,137.760086 140.106339,134.503922 136.329010,131.194916 
	C135.325348,130.331299 134.655594,129.520538 133.935074,128.381744 
	C137.291718,128.370148 140.699142,128.686569 144.552170,129.003326 
z"/>
<path fill="#1C032D" opacity="1.000000" stroke="none" 
	d="
M57.846939,113.010559 
	C57.912266,114.398514 57.977596,115.786461 58.101101,117.587997 
	C58.117661,120.373260 58.076042,122.744949 58.091728,125.558044 
	C58.111820,127.716736 58.074608,129.434021 58.096703,131.577347 
	C57.758579,134.099289 57.361145,136.195175 56.854599,138.680161 
	C56.187153,138.220901 55.128365,137.360382 55.148636,136.526093 
	C55.331692,128.992340 55.703766,121.463173 56.333702,113.466339 
	C57.046978,113.003532 57.446957,113.007042 57.846939,113.010559 
z"/>
<path fill="#A72C8F" opacity="1.000000" stroke="none" 
	d="
M87.419365,81.021851 
	C87.890617,85.677254 87.964951,90.351494 88.010803,95.487755 
	C86.852539,95.019402 85.722740,94.089035 84.295837,92.981552 
	C84.332886,90.105339 84.505821,87.371933 85.069847,84.721756 
	C85.347878,83.415390 86.348694,82.262848 87.419365,81.021851 
z"/>
<path fill="#190024" opacity="1.000000" stroke="none" 
	d="
M129.858551,122.879578 
	C129.557114,123.269821 129.331894,123.395706 128.726776,123.793152 
	C125.812271,120.338409 123.344391,116.731529 120.947495,113.055084 
	C121.018478,112.985519 121.163162,112.849228 121.163162,112.849228 
	C127.003105,113.413277 127.960335,118.383377 129.858551,122.879578 
z"/>
<path fill="#2B0928" opacity="1.000000" stroke="none" 
	d="
M57.925850,112.756912 
	C57.446957,113.007042 57.046978,113.003532 56.347610,112.997635 
	C56.166451,107.518517 56.284676,102.041771 56.709797,96.280151 
	C57.365528,98.052040 57.714363,100.108803 58.123260,102.582520 
	C58.138039,105.700951 58.092754,108.402412 58.107262,111.550629 
	C58.112953,112.166008 58.058853,112.334633 57.925850,112.756912 
z"/>
<path fill="#050206" opacity="1.000000" stroke="none" 
	d="
M105.974442,97.096581 
	C110.198128,94.655914 111.256393,98.439468 112.895065,100.758797 
	C113.812180,102.056862 114.251465,103.692513 114.625893,105.596367 
	C113.900703,105.991562 113.455673,105.966446 112.940384,105.715881 
	C112.691170,105.205734 112.436172,105.033775 112.060547,104.623840 
	C110.002121,101.880928 107.988281,99.488754 105.974442,97.096581 
z"/>
<path fill="#90378C" opacity="1.000000" stroke="none" 
	d="
M105.636902,97.048874 
	C107.988281,99.488754 110.002121,101.880928 111.680313,104.628937 
	C108.918083,103.321548 106.491501,101.658325 104.030930,99.633850 
	C104.018692,98.549110 104.040428,97.825607 104.062172,97.102112 
	C104.062172,97.102112 104.073921,96.948700 104.007965,96.908974 
	C104.394463,96.913223 104.846909,96.957199 105.636902,97.048874 
z"/>
<path fill="#0A020A" opacity="1.000000" stroke="none" 
	d="
M116.607765,86.886566 
	C117.230843,87.498787 117.551361,87.965439 117.970810,88.701050 
	C117.199753,89.322128 116.329765,89.674255 115.267700,90.104126 
	C113.898346,87.738274 112.452522,85.240303 111.013580,82.361481 
	C112.782043,83.567413 114.543625,85.154205 116.607765,86.886566 
z"/>
<path fill="#0D0107" opacity="1.000000" stroke="none" 
	d="
M64.999390,89.999390 
	C65.088524,89.214714 65.177658,88.430038 65.402885,86.447281 
	C67.453491,89.187996 68.921028,91.149406 70.273270,92.956734 
	C68.062607,93.933243 68.062607,93.933243 65.359894,90.069595 
	C65.000000,90.000000 64.999390,89.999390 64.999390,89.999390 
z"/>
<path fill="#190024" opacity="1.000000" stroke="none" 
	d="
M116.076309,106.976357 
	C117.731033,108.699532 119.385765,110.422714 121.101822,112.497559 
	C121.163162,112.849228 121.018478,112.985519 120.669014,113.016891 
	C119.946350,113.009926 119.573158,112.971588 119.073486,112.651535 
	C118.047607,111.563202 117.148201,110.756569 116.167892,109.584000 
	C116.083420,108.470818 116.079865,107.723587 116.076309,106.976357 
z"/>
<path fill="#2B0928" opacity="1.000000" stroke="none" 
	d="
M57.205368,90.862724 
	C56.598911,89.570480 56.288113,88.166084 55.968102,86.377335 
	C56.972954,86.420906 57.987015,86.848839 59.000610,87.629776 
	C58.500439,88.905380 58.000732,89.827972 57.205368,90.862724 
z"/>
<path fill="#0D0107" opacity="1.000000" stroke="none" 
	d="
M64.988113,94.628784 
	C63.378414,92.922142 61.776207,90.794518 60.022377,88.360786 
	C61.346378,88.665855 62.822010,89.277031 64.648514,89.943802 
	C64.999390,89.999390 65.000000,90.000000 65.000305,90.000305 
	C64.998940,91.403008 64.997269,92.805405 64.988113,94.628784 
z"/>
<path fill="#0D000C" opacity="1.000000" stroke="none" 
	d="
M40.022255,129.446945 
	C40.032845,129.009186 40.422966,128.932388 40.621132,128.918396 
	C40.845943,131.207764 40.872585,133.511139 40.539383,135.910767 
	C40.123573,133.966263 40.067619,131.925476 40.022255,129.446945 
z"/>
<path fill="#0C0304" opacity="1.000000" stroke="none" 
	d="
M49.529243,62.275017 
	C50.694962,61.919586 51.688263,61.861729 52.681568,61.803871 
	C52.404839,62.666634 52.128109,63.529400 51.851379,64.392166 
	C51.019867,63.785637 50.188351,63.179108 49.529243,62.275017 
z"/>
<path fill="#7219AA" opacity="1.000000" stroke="none" 
	d="
M96.008430,131.694885 
	C96.121864,132.155334 96.064796,132.327179 95.910439,132.752701 
	C94.275879,131.460464 92.738602,129.914520 91.346367,128.017609 
	C92.940247,128.913177 94.389084,130.159714 96.008430,131.694885 
z"/>
<path fill="#B72F78" opacity="1.000000" stroke="none" 
	d="
M68.164062,74.222000 
	C69.212387,73.710579 70.247139,73.516388 71.281876,73.322205 
	C71.290237,74.317657 71.298599,75.313110 71.172913,76.618195 
	C70.076080,76.131630 69.113274,75.335442 68.164062,74.222000 
z"/>
<path fill="#90378C" opacity="1.000000" stroke="none" 
	d="
M115.965134,106.737030 
	C116.079865,107.723587 116.083420,108.470818 115.833557,109.482803 
	C114.723640,108.478813 113.867142,107.210068 113.010643,105.941322 
	C113.455673,105.966446 113.900703,105.991562 114.674957,105.955521 
	C115.287445,106.095467 115.570694,106.296593 115.965134,106.737030 
z"/>
<path fill="#1E0419" opacity="1.000000" stroke="none" 
	d="
M123.049194,93.723091 
	C123.293915,94.595100 123.401466,95.192642 123.295578,95.900894 
	C122.392670,94.909401 121.703194,93.807198 121.024536,92.318871 
	C121.660904,92.438049 122.286461,92.943336 123.049194,93.723091 
z"/>
<path fill="#0A020A" opacity="1.000000" stroke="none" 
	d="
M114.607025,96.045998 
	C114.208519,96.289223 113.812340,96.287651 113.418289,96.257904 
	C113.407890,96.257111 113.413155,95.806953 113.423615,95.806404 
	C113.818039,95.785858 114.213943,95.793533 114.607025,96.045998 
z"/>
<path fill="#2B0928" opacity="1.000000" stroke="none" 
	d="
M56.063259,93.212730 
	C56.119923,92.985359 56.288181,92.979195 56.708450,92.988045 
	C57.111942,93.292824 57.263432,93.582596 57.189079,93.932831 
	C56.619923,93.920349 56.357128,93.733894 56.063259,93.212730 
z"/>
<path fill="#843A7D" opacity="1.000000" stroke="none" 
	d="
M128.260406,99.883896 
	C128.308823,99.773285 128.592651,99.736092 128.927856,99.876915 
	C128.979233,100.054924 128.495819,99.957314 128.260406,99.883896 
z"/>
<path fill="#843A7D" opacity="1.000000" stroke="none" 
	d="
M129.030487,100.267456 
	C129.228348,100.200714 129.508911,100.382820 129.888931,100.800842 
	C129.696655,100.863281 129.404907,100.689796 129.030487,100.267456 
z"/>
<path fill="#843A7D" opacity="1.000000" stroke="none" 
	d="
M130.011505,101.259758 
	C130.134720,101.259682 130.308334,101.505035 130.340546,101.868774 
	C130.153397,101.826508 130.107651,101.665855 130.011505,101.259758 
z"/>
<path fill="#B72F78" opacity="1.000000" stroke="none" 
	d="
M88.077698,64.808830 
	C88.083450,67.101242 88.025162,69.120735 87.904114,71.569908 
	C84.741188,72.431648 82.216255,75.519226 78.318810,72.059425 
	C76.158424,70.141632 71.352150,71.204407 67.373795,70.962280 
	C66.691505,64.688805 72.163956,67.980278 74.724083,66.442665 
	C76.499634,65.376259 79.852463,65.477074 80.439659,64.146729 
	C82.821754,58.749828 84.900040,61.795193 87.545700,63.931175 
	C87.925079,64.172798 87.969360,64.354355 88.077698,64.808830 
z"/>
<path fill="#741BAA" opacity="1.000000" stroke="none" 
	d="
M161.978287,137.707031 
	C160.867157,136.812073 159.783981,135.514542 158.325134,133.756363 
	C156.596710,131.862305 155.243958,130.428894 153.920471,128.754776 
	C153.949753,128.514069 153.941315,128.029190 153.941315,128.029190 
	C160.682678,125.005165 166.475006,127.859444 172.615158,130.995041 
	C172.565384,131.971207 172.124649,132.933258 171.339569,133.949493 
	C168.093506,135.361603 163.925507,133.271088 161.978287,137.707031 
z"/>
<path fill="#040204" opacity="1.000000" stroke="none" 
	d="
M153.711578,128.018494 
	C153.941315,128.029190 153.949753,128.514069 153.700256,128.751801 
	C153.450775,128.989548 153.010056,129.009796 153.010056,129.009796 
	C153.010056,129.009796 153.001465,129.001434 153.000336,129.000305 
	C153.004761,128.817490 153.010315,128.635788 153.024567,128.180069 
	C153.033234,127.906059 153.481827,128.007797 153.711578,128.018494 
z"/>
<path fill="#400A6E" opacity="1.000000" stroke="none" 
	d="
M164.996185,142.534073 
	C165.005173,142.281769 165.160919,142.170715 165.586548,141.962372 
	C165.856400,141.865097 165.936279,142.338516 165.936096,142.577469 
	C165.657867,142.846588 165.393524,142.799561 164.996185,142.534073 
z"/>
<path fill="#791BA6" opacity="1.000000" stroke="none" 
	d="
M103.225494,129.300812 
	C103.162285,128.240280 103.275574,127.482742 103.866425,126.362579 
	C105.577286,125.351784 107.052986,124.946968 107.996117,124.007515 
	C110.348106,121.664711 112.302933,121.240746 113.446815,123.820641 
	C115.380302,123.384491 116.936569,122.517998 118.112671,122.881500 
	C120.197632,123.525925 122.051727,124.917305 124.002419,125.996140 
	C121.085800,129.056168 118.287285,131.520599 113.636696,128.360138 
	C112.421410,127.534241 109.652733,128.994110 109.067848,129.110809 
	C106.791573,131.720932 105.369850,133.351166 103.567245,134.992523 
	C103.258247,133.203705 103.330116,131.403763 103.225494,129.300812 
z"/>
<path fill="#1B001B" opacity="1.000000" stroke="none" 
	d="
M102.961014,137.735687 
	C102.981125,137.994034 102.493813,138.026871 102.249680,138.033295 
	C102.073174,137.736847 102.216934,137.475937 102.614029,137.119095 
	C102.841141,137.146591 102.891029,137.311981 102.961014,137.735687 
z"/>
<path fill="#400A6E" opacity="1.000000" stroke="none" 
	d="
M154.189926,142.606705 
	C155.999344,142.304886 158.127136,142.199463 160.690704,142.245697 
	C158.920425,142.532608 156.714355,142.667847 154.189926,142.606705 
z"/>
<path fill="#811E9E" opacity="1.000000" stroke="none" 
	d="
M124.335434,125.996353 
	C122.051727,124.917305 120.197632,123.525925 118.112671,122.881500 
	C116.936569,122.517998 115.380302,123.384491 113.446815,123.820641 
	C112.302933,121.240746 110.348106,121.664711 107.996117,124.007515 
	C107.052986,124.946968 105.577286,125.351784 104.012283,126.008759 
	C103.548058,122.354729 103.415543,118.691872 103.486626,114.415161 
	C103.862610,113.534500 104.015366,113.256897 104.529343,112.977341 
	C109.665611,110.853668 114.427521,110.473473 119.199959,112.933243 
	C119.573158,112.971588 119.946350,113.009926 120.598030,113.086456 
	C123.344391,116.731529 125.812271,120.338409 128.637665,123.973053 
	C128.995193,124.000816 128.986725,124.493164 128.647583,124.745880 
	C127.539131,125.329941 126.769844,125.661278 126.000557,125.992615 
	C125.556519,125.993935 125.112480,125.995247 124.335434,125.996353 
z"/>
<path fill="#791BA6" opacity="1.000000" stroke="none" 
	d="
M126.004852,126.362755 
	C126.769844,125.661278 127.539131,125.329941 128.643448,124.992058 
	C129.736588,127.098961 130.494720,129.212402 131.252838,131.325851 
	C130.987915,131.629150 130.723007,131.932434 130.458084,132.235733 
	C128.975098,130.401459 127.492126,128.567184 126.004852,126.362755 
z"/>
<path fill="#0F010D" opacity="1.000000" stroke="none" 
	d="
M153.011475,129.377228 
	C153.010056,129.009796 153.450775,128.989548 153.670990,128.992523 
	C155.243958,130.428894 156.596710,131.862305 158.032822,133.616272 
	C153.521317,136.062088 153.816803,132.234207 153.011475,129.377228 
z"/>
<path fill="#922196" opacity="1.000000" stroke="none" 
	d="
M119.073486,112.651535 
	C114.427521,110.473473 109.665611,110.853668 104.351440,112.922516 
	C103.792694,112.858841 103.434219,112.764946 103.434219,112.764946 
	C103.386284,109.839691 103.338348,106.914436 103.503677,103.286263 
	C103.832932,101.720596 103.948921,100.857849 104.064911,99.995102 
	C106.491501,101.658325 108.918083,103.321548 111.724915,104.979675 
	C112.436172,105.033775 112.691170,105.205734 112.940384,105.715881 
	C113.867142,107.210068 114.723640,108.478813 115.914467,109.848755 
	C117.148201,110.756569 118.047607,111.563202 119.073486,112.651535 
z"/>
<path fill="#4E065D" opacity="1.000000" stroke="none" 
	d="
M104.030930,99.633850 
	C103.948921,100.857849 103.832932,101.720596 103.524971,102.845551 
	C103.354912,101.244667 103.376816,99.381561 103.730446,97.310287 
	C104.040428,97.825607 104.018692,98.549110 104.030930,99.633850 
z"/>
<path fill="#4E065D" opacity="1.000000" stroke="none" 
	d="
M103.323532,113.099640 
	C103.434219,112.764946 103.792694,112.858841 103.970596,112.913666 
	C104.015366,113.256897 103.862610,113.534500 103.518845,113.963860 
	C103.302597,113.895721 103.257721,113.665024 103.323532,113.099640 
z"/>
</svg>